<svg width="27" height="27" viewBox="0 0 27 27" fill="none" xmlns="http://www.w3.org/2000/svg">
<path fill-rule="evenodd" clip-rule="evenodd" d="M5.93491 0.527915C10.9222 -0.0294873 16.0779 -0.0294873 21.0652 0.527915C23.8484 0.838976 26.0938 3.03177 26.4206 5.82593C27.0169 10.9246 27.0169 16.0753 26.4206 21.174C26.0938 23.9681 23.8484 26.1609 21.0652 26.472C16.0779 27.0294 10.9222 27.0294 5.93491 26.472C3.15173 26.1609 0.906376 23.9681 0.579573 21.174C-0.0167589 16.0753 -0.0167588 10.9246 0.579574 5.82593C0.906377 3.03177 3.15173 0.838976 5.93491 0.527915ZM7.76331 7.76316C8.23926 7.28721 9.01093 7.28721 9.48688 7.76316L13.5001 11.7764L17.5133 7.76317C17.9893 7.28722 18.7609 7.28722 19.2369 7.76317C19.7128 8.23913 19.7128 9.0108 19.2369 9.48675L15.2237 13.5L19.2369 17.5132C19.7128 17.9891 19.7128 18.7608 19.2369 19.2367C18.7609 19.7127 17.9893 19.7127 17.5133 19.2367L13.5001 15.2235L9.48689 19.2367C9.01094 19.7127 8.23927 19.7127 7.76332 19.2367C7.28737 18.7608 7.28737 17.9891 7.76332 17.5132L11.7765 13.5L7.76331 9.48673C7.28735 9.01078 7.28735 8.23911 7.76331 7.76316Z" fill="#DEDEDE"/>
</svg>
