<svg width="19" height="18" viewBox="0 0 19 18" fill="none" xmlns="http://www.w3.org/2000/svg">
<path fill-rule="evenodd" clip-rule="evenodd" d="M2.35159 6.80148C4.21464 10.6934 7.52989 13.7875 11.6512 15.4641L11.6642 15.4694L12.4604 15.8099C13.4742 16.2432 14.6659 15.9354 15.3159 15.0724L16.6443 13.3086C16.7254 13.2009 16.7045 13.0511 16.5967 12.9676L14.2777 11.1728C14.1624 11.0836 13.9929 11.1044 13.9047 11.2186L13.0021 12.3869C12.7829 12.6707 12.3871 12.7693 12.0517 12.6237C8.97003 11.2857 6.49365 8.91004 5.09903 5.95363C4.94725 5.63187 5.05002 5.25212 5.3458 5.04184L6.56368 4.17598C6.68268 4.09137 6.70434 3.92875 6.61134 3.81815L4.74024 1.59311C4.65328 1.48969 4.49718 1.46961 4.38489 1.54738L2.53646 2.82754C1.63085 3.45473 1.31193 4.60757 1.77418 5.58302L2.35097 6.80018C2.35118 6.80062 2.35139 6.80105 2.35159 6.80148ZM11.0342 16.8424C6.55614 15.0188 2.95437 11.6558 0.930029 7.42607L0.92881 7.42353L0.350812 6.20381C-0.419606 4.57806 0.11193 2.65665 1.62127 1.61134L3.4697 0.33118C4.25577 -0.213227 5.34842 -0.0726221 5.95716 0.651271L7.82826 2.87632C8.47929 3.65049 8.32765 4.78888 7.49463 5.38112L6.79676 5.87727C7.97559 8.07167 9.84392 9.86405 12.1313 10.995L12.6485 10.3255C13.2658 9.52629 14.4525 9.38083 15.2594 10.0054L17.5784 11.8002C18.3332 12.3844 18.4796 13.433 17.9116 14.1871L16.5833 15.9509C15.4999 17.3893 13.5138 17.9023 11.8241 17.18L11.0342 16.8424Z" fill="#014DF5"/>
</svg>
