<svg width="28" height="28" viewBox="0 0 28 28" fill="none" xmlns="http://www.w3.org/2000/svg">
<g clip-path="url(#clip0_542_3957)">
<path d="M20.5479 18.0742C21.9257 16.1926 22.7499 13.8814 22.7499 11.376C22.7499 5.10401 17.6469 0.000976562 11.3749 0.000976562C5.10298 0.000976562 0 5.10401 0 11.376C0 17.6479 5.10303 22.7509 11.375 22.7509C13.8805 22.7509 16.1918 21.9267 18.0734 20.5488L25.5254 28.0008L28 25.5262C28 25.5262 20.5479 18.0742 20.5479 18.0742ZM11.375 19.2509C7.03245 19.2509 3.50001 15.7185 3.50001 11.376C3.50001 7.03343 7.03245 3.50099 11.375 3.50099C15.7175 3.50099 19.2499 7.03343 19.2499 11.376C19.2499 15.7185 15.7174 19.2509 11.375 19.2509Z" fill="#014DF5"/>
</g>
<defs>
<clipPath id="clip0_542_3957">
<rect width="28" height="28" fill="white"/>
</clipPath>
</defs>
</svg>
