<svg width="71" height="30" viewBox="0 0 71 30" fill="none" xmlns="http://www.w3.org/2000/svg">
<path d="M4.76758 2.45147C5.50786 1.21791 6.49491 0.863835 7.69507 0.783883C8.89522 0.70393 27.8846 0.349854 29.2867 0.349854C30.6887 0.349854 32.0011 0.761039 33.6387 1.91464L29.769 1.69763C29.3652 1.20649 28.4567 1.03516 26.5835 1.08085C25.26 1.10369 14.9745 1.30929 8.13251 1.46919C7.35857 1.49204 6.95478 1.789 6.6968 2.24588L4.76758 2.45147Z" fill="#1F1F1F"/>
<path d="M17.9792 1.04671L17.7324 1.80055L19.6841 1.75487L19.7962 0.932495L17.9792 1.04671Z" fill="#1F1F1F"/>
<path d="M67.7458 21.5032C67.9141 22.1885 68.5198 22.6796 69.2264 22.6796H70.7182C70.8864 22.337 70.9986 21.9486 70.9986 21.526V20.3381C70.9986 20.0526 70.9762 19.767 70.9425 19.4929H67.6673C67.4542 19.4929 67.2972 19.6985 67.3533 19.9041L67.7458 21.5032Z" fill="#1F1F1F"/>
<path d="M67.7472 21.5032L67.3547 19.9041C67.2986 19.6985 67.4556 19.4929 67.6687 19.4929H70.9439C70.9103 19.2188 70.8542 18.9447 70.7869 18.6705C70.1588 16.1577 68.2856 14.1589 65.8404 13.4051C62.3858 12.3429 58.8414 11.589 55.2521 11.155L52.2573 10.8352C51.9545 10.8009 51.6517 10.6981 51.3937 10.5268L42.5103 4.85015C39.4594 2.89702 35.9487 1.80052 32.3482 1.6863C24.1714 1.4236 15.9834 1.57208 7.80663 2.13175L3.85845 2.39446C2.86019 2.46299 2.00774 3.12545 1.67125 4.08488C0.987046 6.01517 0 9.53309 0 13.5193V20.2011C0 21.6402 0.975829 22.8966 2.35545 23.2279L3.8921 23.5933L11.867 24.2444L57.7085 24.5756L63.1934 24.37L68.5772 24.1188C69.5306 24.0731 70.327 23.502 70.7308 22.6796H69.239C68.5324 22.6796 67.9267 22.1885 67.7472 21.5032Z" fill="url(#paint0_linear_3692_84488)"/>
<path d="M17.6123 16.7288L49.3773 17.4255C49.5567 17.4255 49.6801 17.6082 49.6128 17.7796L49.1641 19.0474C49.0071 19.4928 48.5809 19.7898 48.121 19.7784L19.5528 19.1273C18.7788 19.1045 18.0834 18.6362 17.7694 17.9166L17.3992 17.06C17.3207 16.9001 17.4441 16.7288 17.6123 16.7288Z" fill="#1F1F1F"/>
<path d="M32.3932 4.4502L33.6831 11.5431C33.7168 11.7145 33.8626 11.8401 34.0308 11.8515L46.4138 12.3313C46.5708 12.3427 46.6942 12.1828 46.6605 12.0343L46.3128 10.538C46.0661 9.48722 45.4043 8.5849 44.4845 8.04807L40.6373 5.79797C38.9885 4.82712 37.1378 4.29029 35.2422 4.19892L32.7185 4.0847C32.5166 4.06186 32.3596 4.24461 32.3932 4.4502Z" fill="#1F1F1F"/>
<path d="M19.0476 11.3606L30.7799 11.7718C30.937 11.7718 31.0603 11.6462 31.0491 11.4977L30.6341 4.53036C30.6229 4.27908 30.4098 4.07349 30.163 4.07349H19.9673C19.6757 4.07349 19.4289 4.26766 19.3616 4.5532L18.7896 6.83757C18.6101 7.55714 18.5428 8.31098 18.5877 9.0534L18.7223 11.0294C18.7335 11.2121 18.8793 11.3492 19.0476 11.3606Z" fill="#1F1F1F"/>
<path d="M15.3917 10.2982L16.8611 5.13552C16.9956 4.66723 16.6479 4.18751 16.1544 4.19893L5.16231 4.40452C4.56784 4.41595 4.10797 4.95277 4.18649 5.56955C4.29865 6.41476 4.51176 7.60263 4.91555 8.6306C5.65584 10.4695 7.15884 11.1206 9.54794 11.1434C11.0846 11.1548 12.9353 11.2348 14.0682 11.2805C14.6738 11.3033 15.2235 10.8921 15.3917 10.2982Z" fill="#1F1F1F"/>
<path d="M9.79734 28.7786C12.6097 28.7786 14.8896 26.457 14.8896 23.5931C14.8896 20.7292 12.6097 18.4076 9.79734 18.4076C6.98496 18.4076 4.70508 20.7292 4.70508 23.5931C4.70508 26.457 6.98496 28.7786 9.79734 28.7786Z" fill="#2C2A2C"/>
<path d="M9.79707 27.0081C11.6493 27.0081 13.1508 25.4791 13.1508 23.593C13.1508 21.7069 11.6493 20.1779 9.79707 20.1779C7.94487 20.1779 6.44336 21.7069 6.44336 23.593C6.44336 25.4791 7.94487 27.0081 9.79707 27.0081Z" fill="url(#paint1_linear_3692_84488)"/>
<path d="M58.4145 28.7786C61.2269 28.7786 63.5068 26.457 63.5068 23.5931C63.5068 20.7292 61.2269 18.4076 58.4145 18.4076C55.6021 18.4076 53.3223 20.7292 53.3223 23.5931C53.3223 26.457 55.6021 28.7786 58.4145 28.7786Z" fill="#2C2A2C"/>
<path d="M58.4143 27.0081C60.2665 27.0081 61.768 25.4791 61.768 23.593C61.768 21.7069 60.2665 20.1779 58.4143 20.1779C56.5621 20.1779 55.0605 21.7069 55.0605 23.593C55.0605 25.4791 56.5621 27.0081 58.4143 27.0081Z" fill="url(#paint2_linear_3692_84488)"/>
<path d="M70.9439 28.2076H0V29.3498H70.9439V28.2076Z" fill="#2C2A2C"/>
<defs>
<linearGradient id="paint0_linear_3692_84488" x1="35.4715" y1="1.54856" x2="35.4715" y2="24.5697" gradientUnits="userSpaceOnUse">
<stop stop-color="#8ABF49"/>
<stop offset="1" stop-color="#4AAB35"/>
</linearGradient>
<linearGradient id="paint1_linear_3692_84488" x1="9.80044" y1="20.1774" x2="9.80044" y2="27.0076" gradientUnits="userSpaceOnUse">
<stop stop-color="#BDBCBC"/>
<stop offset="1" stop-color="#9D9D9C"/>
</linearGradient>
<linearGradient id="paint2_linear_3692_84488" x1="58.4124" y1="20.1774" x2="58.4124" y2="27.0076" gradientUnits="userSpaceOnUse">
<stop stop-color="#BDBCBC"/>
<stop offset="1" stop-color="#9D9D9C"/>
</linearGradient>
</defs>
</svg>
