<svg width="72" height="35" viewBox="0 0 72 35" fill="none" xmlns="http://www.w3.org/2000/svg">
<path d="M0 22.1919V28.1036C0 28.4581 0.264706 28.75 0.61086 28.7709L12.8281 29.7196L14.6199 29.7405L8.94909 22.1919H0Z" fill="#1F1F1F"/>
<path d="M69.526 20.0848L68.7115 18.8857C68.0396 17.9474 67.0826 17.2592 65.9932 16.936L64.1097 16.3834C63.5803 16.227 63.1018 15.9455 62.7048 15.5598L52.1369 5.26905C49.2455 2.45396 45.4174 0.858747 41.4163 0.817042L3.431 0.399992C2.87104 0.389566 2.38235 0.764911 2.22964 1.30708C0.753394 6.35338 0 11.5874 0 16.8526V22.1909H8.66403C8.83711 22.1909 9.01018 22.2743 9.11199 22.4202L14.6097 29.7395L58.1742 30.2816L59.8235 30.4276L62.9898 26.0277L68.9559 20.5956C68.9661 20.5956 69.4853 20.5122 69.526 20.0848Z" fill="url(#paint0_linear_3692_84511)"/>
<path d="M69.5283 20.0848L63.0022 26.0278L59.8359 30.4277L63.8676 30.7822L69.9864 29.75C71.1878 29.5519 72.043 28.4258 71.931 27.1851C71.7172 24.6515 70.8823 22.2118 69.5283 20.0848Z" fill="#1F1F1F"/>
<path d="M69.526 20.0848L68.7115 18.8857C68.0396 17.9474 67.0826 17.2592 65.9932 16.936L64.1097 16.3834C63.5803 16.227 63.1018 15.9455 62.7048 15.5598L52.1369 5.26905C49.2455 2.45396 45.4174 0.858747 41.4163 0.817042L3.431 0.399992C2.87104 0.389566 2.38235 0.764911 2.22964 1.30708C0.753394 6.35338 0 11.5874 0 16.8526V22.1909H8.66403C8.83711 22.1909 9.01018 22.2743 9.11199 22.4202L14.6097 29.7395L58.1742 30.2816L59.8235 30.4276L62.9898 26.0277L68.9559 20.5956C68.9661 20.5956 69.4853 20.5122 69.526 20.0848Z" fill="url(#paint1_linear_3692_84511)"/>
<path d="M14.6179 33.869C17.5362 33.869 19.9019 31.4463 19.9019 28.4577C19.9019 25.4692 17.5362 23.0465 14.6179 23.0465C11.6997 23.0465 9.33398 25.4692 9.33398 28.4577C9.33398 31.4463 11.6997 33.869 14.6179 33.869Z" fill="#2C2A2C"/>
<path d="M14.6186 32.0235C16.5416 32.0235 18.1005 30.4271 18.1005 28.4577C18.1005 26.4884 16.5416 24.892 14.6186 24.892C12.6956 24.892 11.1367 26.4884 11.1367 28.4577C11.1367 30.4271 12.6956 32.0235 14.6186 32.0235Z" fill="url(#paint2_linear_3692_84511)"/>
<path d="M60.2214 33.8685C63.1397 33.8685 65.5054 31.4458 65.5054 28.4572C65.5054 25.4687 63.1397 23.046 60.2214 23.046C57.3032 23.046 54.9375 25.4687 54.9375 28.4572C54.9375 31.4458 57.3032 33.8685 60.2214 33.8685Z" fill="#2C2A2C"/>
<path d="M60.2221 32.023C62.1451 32.023 63.704 30.4266 63.704 28.4573C63.704 26.4879 62.1451 24.8915 60.2221 24.8915C58.2991 24.8915 56.7402 26.4879 56.7402 28.4573C56.7402 30.4266 58.2991 32.023 60.2221 32.023Z" fill="url(#paint3_linear_3692_84511)"/>
<path d="M71.9986 33.3591H0.273438V34.4018H71.9986V33.3591Z" fill="#2C2A2C"/>
<path d="M52.3109 28.1647L21.7068 27.831C21.2385 27.831 20.8312 27.4974 20.7091 27.0282L20.5054 26.1628C20.4851 26.0586 20.5563 25.9647 20.6582 25.9647L53.217 26.4339C53.3086 26.4339 53.3799 26.5277 53.3697 26.6216L53.2272 27.4035C53.1457 27.8414 52.7588 28.1647 52.3109 28.1647Z" fill="#2C2A2C"/>
<path d="M61.5857 16.4774L54.1637 8.86628C53.1762 7.85494 51.8425 7.28149 50.4477 7.28149H47.4545C46.5993 7.28149 45.9375 8.05304 46.0495 8.92884L46.752 14.1732C46.976 15.8832 48.4115 17.1552 50.0914 17.1552H61.3108C61.657 17.1447 61.83 16.7172 61.5857 16.4774Z" fill="#1F1F1F"/>
<rect x="6.38086" y="3.15674" width="34.6329" height="18.3784" rx="9.18919" fill="#FF328C"/>
<path d="M19.3354 7.13897L17.1079 7.98947V9.81197L18.8359 9.16397V14.5775H17.1079V16.319H22.3459V14.5775H20.8069V7.13897H19.3354ZM28.6993 16.319V11.4185H30.7648V9.83897H24.7708V11.4185H26.8363V16.319H28.6993Z" fill="#FDFEFC"/>
<defs>
<linearGradient id="paint0_linear_3692_84511" x1="34.7634" y1="0.399992" x2="34.7634" y2="30.4305" gradientUnits="userSpaceOnUse">
<stop stop-color="#EDEDED"/>
<stop offset="0.3203" stop-color="#EAEAEA"/>
<stop offset="0.5727" stop-color="#E3E3E3"/>
<stop offset="0.801" stop-color="#D7D7D7"/>
<stop offset="1" stop-color="#C6C6C6"/>
</linearGradient>
<linearGradient id="paint1_linear_3692_84511" x1="34.7634" y1="0.399992" x2="34.7634" y2="30.4305" gradientUnits="userSpaceOnUse">
<stop stop-color="#EDEDED" stop-opacity="0"/>
<stop offset="0.1691" stop-color="#E6E6E5" stop-opacity="0.1352"/>
<stop offset="0.4523" stop-color="#D2D2D2" stop-opacity="0.3619"/>
<stop offset="0.8129" stop-color="#B2B1B1" stop-opacity="0.6503"/>
<stop offset="1" stop-color="#9D9D9C" stop-opacity="0.8"/>
</linearGradient>
<linearGradient id="paint2_linear_3692_84511" x1="14.6148" y1="24.8938" x2="14.6148" y2="32.0317" gradientUnits="userSpaceOnUse">
<stop stop-color="#BDBCBC"/>
<stop offset="1" stop-color="#9D9D9C"/>
</linearGradient>
<linearGradient id="paint3_linear_3692_84511" x1="60.2257" y1="24.8934" x2="60.2257" y2="32.0312" gradientUnits="userSpaceOnUse">
<stop stop-color="#BDBCBC"/>
<stop offset="1" stop-color="#9D9D9C"/>
</linearGradient>
</defs>
</svg>
