<svg width="67" height="38" viewBox="0 0 67 38" fill="none" xmlns="http://www.w3.org/2000/svg">
<path d="M63.9866 22.5044L61.1013 21.2249C60.0036 20.732 58.9791 20.0923 58.0696 19.3057L53.0622 15.0268C50.6995 13.0132 47.7097 11.912 44.6153 11.912H39.8691V32.5619C39.8691 32.8346 40.0887 33.0548 40.3605 33.0548H53.2399C53.3444 33.0548 53.4385 32.9605 53.4385 32.8556C53.4385 30.6742 54.8916 28.6606 57.0242 28.2411C58.0069 28.0523 58.9373 28.1781 59.7527 28.5452L66.2029 24.4865C65.6906 23.6266 64.9275 22.9239 63.9866 22.5044Z" fill="url(#paint0_linear_3692_84537)"/>
<path d="M66.2021 24.4972L59.752 28.5559C61.3305 29.2585 62.4282 30.8317 62.4282 32.6775V33.076H65.0731C65.878 33.076 66.568 32.4992 66.7143 31.7126C66.9025 30.7058 66.9966 29.678 66.9966 28.6502V27.9476C66.9966 27.2554 66.9234 26.5737 66.7666 25.9025C66.6516 25.3886 66.453 24.9272 66.2021 24.4972Z" fill="#1F1F1F"/>
<path d="M39.8717 0.699951H0V26.8454H39.8717V0.699951Z" fill="url(#paint1_linear_3692_84537)"/>
<path d="M63.9866 22.5044L61.1013 21.2249C60.0036 20.732 58.9791 20.0923 58.0696 19.3057L53.0622 15.0268C50.6995 13.0132 47.7097 11.912 44.6153 11.912H39.8691V32.5619C39.8691 32.8346 40.0887 33.0548 40.3605 33.0548H53.2399C53.3444 33.0548 53.4385 32.9605 53.4385 32.8556C53.4385 30.6742 54.8916 28.6606 57.0242 28.2411C58.0069 28.0523 58.9373 28.1781 59.7527 28.5452L66.2029 24.4865C65.6906 23.6266 64.9275 22.9239 63.9866 22.5044Z" fill="url(#paint2_linear_3692_84537)"/>
<path d="M43.9599 20.9318L58.8569 22.3896C59.1601 22.4211 59.3273 22.033 59.0869 21.8338L52.229 15.9922C50.2637 14.3247 47.786 13.3913 45.2248 13.3389L44.2003 13.3179C43.8344 13.3074 43.5312 13.6115 43.5312 13.9786V20.4494C43.5313 20.7011 43.7194 20.9109 43.9599 20.9318Z" fill="#1F1F1F"/>
<path d="M39.8717 26.8455H0V28.1564H39.8717V26.8455Z" fill="#1F1F1F"/>
<path d="M39.8727 29.2666H21.9336V32.6541H39.8727V29.2666Z" fill="#1F1F1F"/>
<path d="M25.6343 27.843H6.83789V30.9683H25.6343V27.843Z" fill="#1F1F1F"/>
<path d="M19.9347 37.1766C22.4173 37.1766 24.4299 35.1576 24.4299 32.667C24.4299 30.1764 22.4173 28.1573 19.9347 28.1573C17.452 28.1573 15.4395 30.1764 15.4395 32.667C15.4395 35.1576 17.452 37.1766 19.9347 37.1766Z" fill="#2C2A2C"/>
<path d="M19.9351 35.6361C21.569 35.6361 22.8936 34.3073 22.8936 32.6682C22.8936 31.029 21.569 29.7002 19.9351 29.7002C18.3011 29.7002 16.9766 31.029 16.9766 32.6682C16.9766 34.3073 18.3011 35.6361 19.9351 35.6361Z" fill="url(#paint3_linear_3692_84537)"/>
<path d="M57.9366 37.1766C60.4193 37.1766 62.4319 35.1576 62.4319 32.667C62.4319 30.1764 60.4193 28.1573 57.9366 28.1573C55.454 28.1573 53.4414 30.1764 53.4414 32.667C53.4414 35.1576 55.454 37.1766 57.9366 37.1766Z" fill="#2C2A2C"/>
<path d="M57.937 35.6361C59.5709 35.6361 60.8955 34.3073 60.8955 32.6682C60.8955 31.029 59.5709 29.7002 57.937 29.7002C56.3031 29.7002 54.9785 31.029 54.9785 32.6682C54.9785 34.3073 56.3031 35.6361 57.937 35.6361Z" fill="url(#paint4_linear_3692_84537)"/>
<path d="M67 36.6512H0V37.7H67V36.6512Z" fill="#2C2A2C"/>
<rect x="2.72656" y="4.3999" width="34.5529" height="18.5" rx="9.25" fill="#FF328C"/>
<path d="M9.89967 8.36993L7.67217 9.22043V11.0429L9.40017 10.3949V15.8084H7.67217V17.5499H12.9102V15.8084H11.3712V8.36993H9.89967ZM14.7993 19.5074L16.1223 15.8759H14.1378L13.2873 19.5074H14.7993ZM17.941 8.35643L17.617 13.6889C18.4135 13.4054 19.264 13.2974 19.9255 13.2974C21.397 13.2974 22.1665 13.7429 22.1665 14.6474C22.1665 15.5384 21.2755 15.9704 20.074 15.9704C19.156 15.9704 18.0895 15.7139 17.347 15.2414V17.1179C18.157 17.5094 19.237 17.7389 20.3035 17.7389C22.3285 17.7389 24.1915 16.8074 24.1915 14.6744C24.1915 12.5684 22.666 11.7449 20.83 11.7449C20.452 11.7449 20.0335 11.7989 19.642 11.8799L19.7635 10.0844L23.773 10.0979V8.35643H17.941ZM30.7464 17.5499V12.6494H32.8119V11.0699H26.8179V12.6494H28.8834V17.5499H30.7464Z" fill="#FDFEFC"/>
<defs>
<linearGradient id="paint0_linear_3692_84537" x1="53.0383" y1="11.9154" x2="53.0383" y2="33.0587" gradientUnits="userSpaceOnUse">
<stop stop-color="#EDEDED"/>
<stop offset="0.3203" stop-color="#EAEAEA"/>
<stop offset="0.5727" stop-color="#E3E3E3"/>
<stop offset="0.801" stop-color="#D7D7D7"/>
<stop offset="1" stop-color="#C6C6C6"/>
</linearGradient>
<linearGradient id="paint1_linear_3692_84537" x1="19.9366" y1="0.699951" x2="19.9366" y2="26.8434" gradientUnits="userSpaceOnUse">
<stop stop-color="#8ABF49"/>
<stop offset="1" stop-color="#4AAB35"/>
</linearGradient>
<linearGradient id="paint2_linear_3692_84537" x1="53.0383" y1="11.9154" x2="53.0383" y2="33.0587" gradientUnits="userSpaceOnUse">
<stop stop-color="#EDEDED" stop-opacity="0"/>
<stop offset="0.1691" stop-color="#E6E6E5" stop-opacity="0.1352"/>
<stop offset="0.4523" stop-color="#D2D2D2" stop-opacity="0.3619"/>
<stop offset="0.8129" stop-color="#B2B1B1" stop-opacity="0.6503"/>
<stop offset="1" stop-color="#9D9D9C" stop-opacity="0.8"/>
</linearGradient>
<linearGradient id="paint3_linear_3692_84537" x1="19.9358" y1="29.694" x2="19.9358" y2="35.6397" gradientUnits="userSpaceOnUse">
<stop stop-color="#BDBCBC"/>
<stop offset="1" stop-color="#9D9D9C"/>
</linearGradient>
<linearGradient id="paint4_linear_3692_84537" x1="57.9328" y1="29.694" x2="57.9328" y2="35.6397" gradientUnits="userSpaceOnUse">
<stop stop-color="#BDBCBC"/>
<stop offset="1" stop-color="#9D9D9C"/>
</linearGradient>
</defs>
</svg>
