<svg width="83" height="38" viewBox="0 0 83 38" fill="none" xmlns="http://www.w3.org/2000/svg">
<path d="M79.6122 22.5044L76.7506 21.2249C75.662 20.732 74.6459 20.0923 73.7439 19.3057L68.7777 15.0268C66.4345 13.0132 63.4693 11.912 60.4004 11.912H55.6934V32.5619C55.6934 32.8346 55.9111 33.0548 56.1807 33.0548H68.9539C69.0576 33.0548 69.1509 32.9605 69.1509 32.8556C69.1509 30.6742 70.5921 28.6606 72.7071 28.2411C73.6817 28.0523 74.6045 28.1781 75.4132 28.5452L81.8102 24.4865C81.3022 23.6266 80.5453 22.9239 79.6122 22.5044Z" fill="url(#paint0_linear_3692_84563)"/>
<path d="M81.8111 24.4972L75.4141 28.5559C76.9796 29.2585 78.0682 30.8317 78.0682 32.6775V33.076H80.6913C81.4897 33.076 82.1739 32.4992 82.3191 31.7126C82.5057 30.7058 82.599 29.678 82.599 28.6503V27.9476C82.599 27.2554 82.5265 26.5737 82.3709 25.9025C82.2569 25.3886 82.0599 24.9272 81.8111 24.4972Z" fill="#1F1F1F"/>
<path d="M55.6948 0.699951H0.599609V26.8454H55.6948V0.699951Z" fill="url(#paint1_linear_3692_84563)"/>
<path d="M79.6122 22.5044L76.7506 21.2249C75.662 20.732 74.6459 20.0923 73.7439 19.3057L68.7777 15.0268C66.4345 13.0132 63.4693 11.912 60.4004 11.912H55.6934V32.5619C55.6934 32.8346 55.9111 33.0548 56.1807 33.0548H68.9539C69.0576 33.0548 69.1509 32.9605 69.1509 32.8556C69.1509 30.6742 70.5921 28.6606 72.7071 28.2411C73.6817 28.0523 74.6045 28.1781 75.4132 28.5452L81.8102 24.4865C81.3022 23.6266 80.5453 22.9239 79.6122 22.5044Z" fill="url(#paint2_linear_3692_84563)"/>
<path d="M59.7493 20.9318L74.5236 22.3896C74.8243 22.4211 74.9902 22.033 74.7517 21.8338L67.9503 15.9922C66.0012 14.3247 63.544 13.3913 61.0038 13.3389L59.9878 13.3179C59.6249 13.3074 59.3242 13.6115 59.3242 13.9786V20.4494C59.3242 20.7011 59.5108 20.9109 59.7493 20.9318Z" fill="#1F1F1F"/>
<path d="M55.6948 26.8455H0.599609V28.1564H55.6948V26.8455Z" fill="#1F1F1F"/>
<path d="M55.6948 29.2666H22.3516V32.6541H55.6948V29.2666Z" fill="#1F1F1F"/>
<path d="M26.0205 27.843H7.37891V30.9683H26.0205V27.843Z" fill="#1F1F1F"/>
<path d="M20.3723 37.1766C22.8345 37.1766 24.8305 35.1576 24.8305 32.667C24.8305 30.1764 22.8345 28.1573 20.3723 28.1573C17.9101 28.1573 15.9141 30.1764 15.9141 32.667C15.9141 35.1576 17.9101 37.1766 20.3723 37.1766Z" fill="#2C2A2C"/>
<path d="M20.3716 35.6361C21.9921 35.6361 23.3058 34.3073 23.3058 32.6682C23.3058 31.029 21.9921 29.7002 20.3716 29.7002C18.7512 29.7002 17.4375 31.029 17.4375 32.6682C17.4375 34.3073 18.7512 35.6361 20.3716 35.6361Z" fill="url(#paint3_linear_3692_84563)"/>
<path d="M73.6125 37.1766C76.0747 37.1766 78.0707 35.1576 78.0707 32.667C78.0707 30.1764 76.0747 28.1573 73.6125 28.1573C71.1503 28.1573 69.1543 30.1764 69.1543 32.667C69.1543 35.1576 71.1503 37.1766 73.6125 37.1766Z" fill="#2C2A2C"/>
<path d="M73.6119 35.6361C75.2323 35.6361 76.546 34.3073 76.546 32.6682C76.546 31.029 75.2323 29.7002 73.6119 29.7002C71.9914 29.7002 70.6777 31.029 70.6777 32.6682C70.6777 34.3073 71.9914 35.6361 73.6119 35.6361Z" fill="url(#paint4_linear_3692_84563)"/>
<path d="M82.5996 36.6512H0.599609V37.7H82.5996V36.6512Z" fill="#2C2A2C"/>
<rect x="10.6211" y="4.3999" width="34.6222" height="18.5" rx="9.25" fill="#FF328C"/>
<path d="M17.8289 8.36993L15.6014 9.22043V11.0429L17.3294 10.3949V15.8084H15.6014V17.5499H20.8394V15.8084H19.3004V8.36993H17.8289ZM22.7285 19.5074L24.0515 15.8759H22.067L21.2165 19.5074H22.7285ZM25.8702 8.35643L25.5462 13.6889C26.3427 13.4054 27.1932 13.2974 27.8547 13.2974C29.3262 13.2974 30.0957 13.7429 30.0957 14.6474C30.0957 15.5384 29.2047 15.9704 28.0032 15.9704C27.0852 15.9704 26.0187 15.7139 25.2762 15.2414V17.1179C26.0862 17.5094 27.1662 17.7389 28.2327 17.7389C30.2577 17.7389 32.1207 16.8074 32.1207 14.6744C32.1207 12.5684 30.5952 11.7449 28.7592 11.7449C28.3812 11.7449 27.9627 11.7989 27.5712 11.8799L27.6927 10.0844L31.7022 10.0979V8.35643H25.8702ZM38.6756 17.5499V12.6494H40.7411V11.0699H34.7471V12.6494H36.8126V17.5499H38.6756Z" fill="#FDFEFC"/>
<defs>
<linearGradient id="paint0_linear_3692_84563" x1="68.7541" y1="11.9154" x2="68.7541" y2="33.0587" gradientUnits="userSpaceOnUse">
<stop stop-color="#EDEDED"/>
<stop offset="0.3203" stop-color="#EAEAEA"/>
<stop offset="0.5727" stop-color="#E3E3E3"/>
<stop offset="0.801" stop-color="#D7D7D7"/>
<stop offset="1" stop-color="#C6C6C6"/>
</linearGradient>
<linearGradient id="paint1_linear_3692_84563" x1="28.1479" y1="0.699951" x2="28.1479" y2="26.8434" gradientUnits="userSpaceOnUse">
<stop stop-color="#8ABF49"/>
<stop offset="1" stop-color="#4AAB35"/>
</linearGradient>
<linearGradient id="paint2_linear_3692_84563" x1="68.7541" y1="11.9154" x2="68.7541" y2="33.0587" gradientUnits="userSpaceOnUse">
<stop stop-color="#EDEDED" stop-opacity="0"/>
<stop offset="0.1691" stop-color="#E6E6E5" stop-opacity="0.1352"/>
<stop offset="0.4523" stop-color="#D2D2D2" stop-opacity="0.3619"/>
<stop offset="0.8129" stop-color="#B2B1B1" stop-opacity="0.6503"/>
<stop offset="1" stop-color="#9D9D9C" stop-opacity="0.8"/>
</linearGradient>
<linearGradient id="paint3_linear_3692_84563" x1="20.3724" y1="29.694" x2="20.3724" y2="35.6397" gradientUnits="userSpaceOnUse">
<stop stop-color="#BDBCBC"/>
<stop offset="1" stop-color="#9D9D9C"/>
</linearGradient>
<linearGradient id="paint4_linear_3692_84563" x1="73.6077" y1="29.694" x2="73.6077" y2="35.6397" gradientUnits="userSpaceOnUse">
<stop stop-color="#BDBCBC"/>
<stop offset="1" stop-color="#9D9D9C"/>
</linearGradient>
</defs>
</svg>
