<svg width="68" height="38" viewBox="0 0 68 38" fill="none" xmlns="http://www.w3.org/2000/svg">
<path d="M64.5843 22.3043L61.699 21.0248C60.6013 20.5319 59.5768 19.8922 58.6673 19.1056L53.6598 14.8267C51.2972 12.8131 48.3073 11.7119 45.2129 11.7119H40.4668V32.3619C40.4668 32.6345 40.6863 32.8548 40.9581 32.8548H53.8375C53.9421 32.8548 54.0362 32.7604 54.0362 32.6555C54.0362 30.4741 55.4893 28.4605 57.6219 28.041C58.6046 27.8522 59.535 27.9781 60.3504 28.3451L66.8005 24.2865C66.2883 23.4265 65.5251 22.7238 64.5843 22.3043Z" fill="url(#paint0_linear_3692_84590)"/>
<path d="M66.7998 24.2971L60.3496 28.3558C61.9282 29.0585 63.0258 30.6316 63.0258 32.4774V32.8759H65.6707C66.4757 32.8759 67.1656 32.2991 67.312 31.5125C67.5002 30.5057 67.5943 29.478 67.5943 28.4502V27.7475C67.5943 27.0553 67.5211 26.3736 67.3643 25.7024C67.2493 25.1886 67.0507 24.7271 66.7998 24.2971Z" fill="#1F1F1F"/>
<path d="M40.4714 0.5H0.599609V26.6454H40.4714V0.5Z" fill="url(#paint1_linear_3692_84590)"/>
<path d="M64.5843 22.3043L61.699 21.0248C60.6013 20.5319 59.5768 19.8922 58.6673 19.1056L53.6598 14.8267C51.2972 12.8131 48.3073 11.7119 45.2129 11.7119H40.4668V32.3619C40.4668 32.6345 40.6863 32.8548 40.9581 32.8548H53.8375C53.9421 32.8548 54.0362 32.7604 54.0362 32.6555C54.0362 30.4741 55.4893 28.4605 57.6219 28.041C58.6046 27.8522 59.535 27.9781 60.3504 28.3451L66.8005 24.2865C66.2883 23.4265 65.5251 22.7238 64.5843 22.3043Z" fill="url(#paint2_linear_3692_84590)"/>
<path d="M44.5595 20.7319L59.4565 22.1897C59.7597 22.2211 59.9269 21.8331 59.6865 21.6338L52.8286 15.7923C50.8633 14.1247 48.3857 13.1914 45.8244 13.1389L44.7999 13.1179C44.434 13.1075 44.1309 13.4116 44.1309 13.7787V20.2495C44.1309 20.5012 44.319 20.7109 44.5595 20.7319Z" fill="#1F1F1F"/>
<path d="M40.4714 26.6455H0.599609V27.9564H40.4714V26.6455Z" fill="#1F1F1F"/>
<path d="M40.4704 29.0668H22.5312V32.4542H40.4704V29.0668Z" fill="#1F1F1F"/>
<path d="M26.2319 27.6431H7.43555V30.7684H26.2319V27.6431Z" fill="#1F1F1F"/>
<path d="M20.5343 36.9767C23.017 36.9767 25.0295 34.9576 25.0295 32.467C25.0295 29.9764 23.017 27.9574 20.5343 27.9574C18.0517 27.9574 16.0391 29.9764 16.0391 32.467C16.0391 34.9576 18.0517 36.9767 20.5343 36.9767Z" fill="#2C2A2C"/>
<path d="M20.5366 35.4363C22.1706 35.4363 23.4951 34.1075 23.4951 32.4683C23.4951 30.8292 22.1706 29.5004 20.5366 29.5004C18.9027 29.5004 17.5781 30.8292 17.5781 32.4683C17.5781 34.1075 18.9027 35.4363 20.5366 35.4363Z" fill="url(#paint3_linear_3692_84590)"/>
<path d="M58.5343 36.9767C61.0169 36.9767 63.0295 34.9576 63.0295 32.467C63.0295 29.9764 61.0169 27.9574 58.5343 27.9574C56.0516 27.9574 54.0391 29.9764 54.0391 32.467C54.0391 34.9576 56.0516 36.9767 58.5343 36.9767Z" fill="#2C2A2C"/>
<path d="M58.5366 35.4363C60.1705 35.4363 61.4951 34.1075 61.4951 32.4683C61.4951 30.8292 60.1705 29.5004 58.5366 29.5004C56.9027 29.5004 55.5781 30.8292 55.5781 32.4683C55.5781 34.1075 56.9027 35.4363 58.5366 35.4363Z" fill="url(#paint4_linear_3692_84590)"/>
<path d="M67.5996 36.4513H0.599609V37.5H67.5996V36.4513Z" fill="#2C2A2C"/>
<path d="M30.7074 12.7409H26.5365L29.7772 9.44417L28.3669 7.99932L23.7059 12.7409H21.7055V10.7059L26.3665 5.96432L24.9462 4.52965L21.7055 7.82635V3.58337H19.7051V7.82635L16.4644 4.52965L15.0441 5.96432L19.7051 10.7059V12.7409H17.7046L13.0436 7.99932L11.6333 9.44417L14.874 12.7409H10.7031V14.7759H14.874L11.6333 18.0726L13.0436 19.5174L17.7046 14.7759H19.7051V16.8109L15.0441 21.5524L16.4644 22.9871L19.7051 19.6904V23.9334H21.7055V19.6904L24.9462 22.9871L26.3665 21.5524L21.7055 16.8109V14.7759H23.7059L28.3669 19.5174L29.7772 18.0726L26.5365 14.7759H30.7074V12.7409Z" fill="white"/>
<defs>
<linearGradient id="paint0_linear_3692_84590" x1="53.636" y1="11.7154" x2="53.636" y2="32.8587" gradientUnits="userSpaceOnUse">
<stop stop-color="#EDEDED"/>
<stop offset="0.3203" stop-color="#EAEAEA"/>
<stop offset="0.5727" stop-color="#E3E3E3"/>
<stop offset="0.801" stop-color="#D7D7D7"/>
<stop offset="1" stop-color="#C6C6C6"/>
</linearGradient>
<linearGradient id="paint1_linear_3692_84590" x1="20.5362" y1="0.5" x2="20.5362" y2="26.6434" gradientUnits="userSpaceOnUse">
<stop stop-color="#3CA5E0"/>
<stop offset="1" stop-color="#2884AB"/>
</linearGradient>
<linearGradient id="paint2_linear_3692_84590" x1="53.636" y1="11.7154" x2="53.636" y2="32.8587" gradientUnits="userSpaceOnUse">
<stop stop-color="#EDEDED" stop-opacity="0"/>
<stop offset="0.1691" stop-color="#E6E6E5" stop-opacity="0.1352"/>
<stop offset="0.4523" stop-color="#D2D2D2" stop-opacity="0.3619"/>
<stop offset="0.8129" stop-color="#B2B1B1" stop-opacity="0.6503"/>
<stop offset="1" stop-color="#9D9D9C" stop-opacity="0.8"/>
</linearGradient>
<linearGradient id="paint3_linear_3692_84590" x1="20.5374" y1="29.4942" x2="20.5374" y2="35.4399" gradientUnits="userSpaceOnUse">
<stop stop-color="#BDBCBC"/>
<stop offset="1" stop-color="#9D9D9C"/>
</linearGradient>
<linearGradient id="paint4_linear_3692_84590" x1="58.5324" y1="29.4942" x2="58.5324" y2="35.4399" gradientUnits="userSpaceOnUse">
<stop stop-color="#BDBCBC"/>
<stop offset="1" stop-color="#9D9D9C"/>
</linearGradient>
</defs>
</svg>
