<svg width="80" height="39" viewBox="0 0 80 39" fill="none" xmlns="http://www.w3.org/2000/svg">
<path d="M55.0919 0H0.599609V27.0482H55.0919V0Z" fill="url(#paint0_linear_3692_84615)"/>
<path d="M55.0919 27.0179H0.599609V28.4179H55.0919V27.0179Z" fill="#1F1F1F"/>
<path d="M59.3436 29.0125H27.0254V33.2123H59.3436V29.0125Z" fill="#1F1F1F"/>
<path d="M31.0534 28.0808H10.6055V31.4031H31.0534V28.0808Z" fill="#1F1F1F"/>
<path d="M25.1809 38.4887C28.0174 38.4887 30.3168 36.2342 30.3168 33.4531C30.3168 30.672 28.0174 28.4175 25.1809 28.4175C22.3444 28.4175 20.0449 30.672 20.0449 33.4531C20.0449 36.2342 22.3444 38.4887 25.1809 38.4887Z" fill="#2C2A2C"/>
<path d="M25.1814 36.7768C27.0528 36.7768 28.5699 35.2894 28.5699 33.4546C28.5699 31.6198 27.0528 30.1323 25.1814 30.1323C23.31 30.1323 21.793 31.6198 21.793 33.4546C21.793 35.2894 23.31 36.7768 25.1814 36.7768Z" fill="url(#paint1_linear_3692_84615)"/>
<path d="M79.5996 37.9553H0.599609V39.0001H79.5996V37.9553Z" fill="#2C2A2C"/>
<path d="M71.3434 25.0953L73.3893 27.7802C73.4958 27.9265 73.6663 28.0101 73.8475 28.0101H79.6121V10.3854C79.6121 7.82578 77.5023 5.7572 74.8917 5.7572H55.0938V24.8759H70.8959C71.0664 24.8654 71.2369 24.949 71.3434 25.0953Z" fill="url(#paint2_linear_3692_84615)"/>
<path d="M73.8475 27.9981C73.6663 27.9981 73.4958 27.9145 73.3893 27.7787L71.3434 25.0937C71.2369 24.9475 71.0664 24.8639 70.8852 24.8639H55.0938V30.3174H58.1306V34.6635C58.1306 34.8307 58.2691 34.9665 58.4396 34.9665H77.6728C78.749 34.9665 79.6228 34.1098 79.6228 33.0546V27.9981H73.8475Z" fill="#1F1F1F"/>
<path d="M71.3434 25.0953L73.3893 27.7802C73.4958 27.9265 73.6663 28.0101 73.8475 28.0101H79.6121V10.3854C79.6121 7.82578 77.5023 5.7572 74.8917 5.7572H55.0938V24.8759H70.8959C71.0664 24.8654 71.2369 24.949 71.3434 25.0953Z" fill="url(#paint3_linear_3692_84615)"/>
<path d="M79.6006 11.2097H63.3296C63.1059 11.2097 62.9141 11.3873 62.9141 11.6172V15.0752C62.9141 15.5872 63.287 16.0364 63.7985 16.1409L79.6113 19.3796V11.2097H79.6006Z" fill="#1F1F1F"/>
<path d="M66.0344 38.488C68.8709 38.488 71.1703 36.2335 71.1703 33.4524C71.1703 30.6713 68.8709 28.4167 66.0344 28.4167C63.1979 28.4167 60.8984 30.6713 60.8984 33.4524C60.8984 36.2335 63.1979 38.488 66.0344 38.488Z" fill="#2C2A2C"/>
<path d="M66.0349 36.776C67.9063 36.776 69.4234 35.2886 69.4234 33.4537C69.4234 31.6189 67.9063 30.1315 66.0349 30.1315C64.1635 30.1315 62.6465 31.6189 62.6465 33.4537C62.6465 35.2886 64.1635 36.776 66.0349 36.776Z" fill="url(#paint4_linear_3692_84615)"/>
<rect x="10.5898" y="4.53491" width="34.5057" height="18.1395" rx="9.06977" fill="#FF328C"/>
<path d="M27.3097 10.8899C27.3097 9.21595 25.8922 8.35195 23.9887 8.35195C22.8547 8.35195 21.8152 8.62195 20.9917 9.06745V10.9439C21.8962 10.3904 22.8817 10.1204 23.7052 10.1204C24.8122 10.1204 25.3927 10.5119 25.3927 11.1734C25.3927 11.8079 24.8392 12.1454 23.9347 12.1454L22.6657 12.1319L22.6522 13.8599H24.1642C25.0822 13.8599 25.7572 14.1434 25.7572 14.9264C25.7572 15.7904 24.8932 16.1279 23.8537 16.1279C22.8007 16.1414 21.8692 15.9929 20.8297 15.4124V17.2889C21.8692 17.7209 22.8277 17.9099 24.0157 17.9099C25.9057 17.9099 27.6877 17.1404 27.6877 15.2099C27.6877 13.8599 26.8507 13.1444 25.9192 12.8609C26.7832 12.5639 27.3097 11.8349 27.3097 10.8899ZM33.2143 17.7209V12.8204H35.2798V11.2409H29.2858V12.8204H31.3513V17.7209H33.2143Z" fill="#FDFEFC"/>
<defs>
<linearGradient id="paint0_linear_3692_84615" x1="27.8444" y1="0" x2="27.8444" y2="27.0516" gradientUnits="userSpaceOnUse">
<stop stop-color="#8ABF49"/>
<stop offset="1" stop-color="#4AAB35"/>
</linearGradient>
<linearGradient id="paint1_linear_3692_84615" x1="25.1779" y1="30.1314" x2="25.1779" y2="36.7693" gradientUnits="userSpaceOnUse">
<stop stop-color="#BDBCBC"/>
<stop offset="1" stop-color="#9D9D9C"/>
</linearGradient>
<linearGradient id="paint2_linear_3692_84615" x1="67.3479" y1="5.75532" x2="67.3479" y2="28.0003" gradientUnits="userSpaceOnUse">
<stop stop-color="#EDEDED"/>
<stop offset="0.3203" stop-color="#EAEAEA"/>
<stop offset="0.5727" stop-color="#E3E3E3"/>
<stop offset="0.801" stop-color="#D7D7D7"/>
<stop offset="1" stop-color="#C6C6C6"/>
</linearGradient>
<linearGradient id="paint3_linear_3692_84615" x1="67.3479" y1="5.75532" x2="67.3479" y2="28.0003" gradientUnits="userSpaceOnUse">
<stop stop-color="#EDEDED" stop-opacity="0"/>
<stop offset="0.1691" stop-color="#E6E6E5" stop-opacity="0.1352"/>
<stop offset="0.4523" stop-color="#D2D2D2" stop-opacity="0.3619"/>
<stop offset="0.8129" stop-color="#B2B1B1" stop-opacity="0.6503"/>
<stop offset="1" stop-color="#9D9D9C" stop-opacity="0.8"/>
</linearGradient>
<linearGradient id="paint4_linear_3692_84615" x1="66.0371" y1="30.1305" x2="66.0371" y2="36.7685" gradientUnits="userSpaceOnUse">
<stop stop-color="#BDBCBC"/>
<stop offset="1" stop-color="#9D9D9C"/>
</linearGradient>
</defs>
</svg>
