<svg width="86" height="39" viewBox="0 0 86 39" fill="none" xmlns="http://www.w3.org/2000/svg">
<path d="M61.8062 0H0.900391V27.0482H61.8062V0Z" fill="url(#paint0_linear_3692_84642)"/>
<path d="M61.8062 27.0179H0.900391V28.4179H61.8062V27.0179Z" fill="#1F1F1F"/>
<path d="M65.9867 29.0125H26.8809V33.2123H65.9867V29.0125Z" fill="#1F1F1F"/>
<path d="M30.8392 28.0808H10.7363V31.4031H30.8392V28.0808Z" fill="#1F1F1F"/>
<path d="M25.0688 38.488C27.8575 38.488 30.1181 36.2335 30.1181 33.4524C30.1181 30.6713 27.8575 28.4167 25.0688 28.4167C22.2802 28.4167 20.0195 30.6713 20.0195 33.4524C20.0195 36.2335 22.2802 38.488 25.0688 38.488Z" fill="#2C2A2C"/>
<path d="M25.0676 36.776C26.9074 36.776 28.3989 35.2886 28.3989 33.4537C28.3989 31.6189 26.9074 30.1315 25.0676 30.1315C23.2278 30.1315 21.7363 31.6189 21.7363 33.4537C21.7363 35.2886 23.2278 36.776 25.0676 36.776Z" fill="url(#paint1_linear_3692_84642)"/>
<path d="M85.9004 37.9553H0.900391V39.0001H85.9004V37.9553Z" fill="#2C2A2C"/>
<path d="M77.7802 25.0953L79.7915 27.7802C79.8963 27.9265 80.0639 28.0101 80.242 28.0101H85.9093V10.3854C85.9093 7.82578 83.8351 5.7572 81.2686 5.7572H61.8047V24.8759H77.3402C77.5078 24.8654 77.6754 24.949 77.7802 25.0953Z" fill="url(#paint2_linear_3692_84642)"/>
<path d="M80.242 27.9981C80.0639 27.9981 79.8963 27.9145 79.7915 27.7787L77.7802 25.0937C77.6754 24.9475 77.5078 24.8639 77.3297 24.8639H61.8047V30.3174H64.7903V34.6635C64.7903 34.8307 64.9265 34.9665 65.0941 34.9665H84.0027C85.0608 34.9665 85.9198 34.1098 85.9198 33.0546V27.9981H80.242Z" fill="#1F1F1F"/>
<path d="M77.7802 25.0953L79.7915 27.7802C79.8963 27.9265 80.0639 28.0101 80.242 28.0101H85.9093V10.3854C85.9093 7.82578 83.8351 5.7572 81.2686 5.7572H61.8047V24.8759H77.3402C77.5078 24.8654 77.6754 24.949 77.7802 25.0953Z" fill="url(#paint3_linear_3692_84642)"/>
<path d="M85.9011 11.2101H69.9046C69.6847 11.2101 69.4961 11.3877 69.4961 11.6175V15.0756C69.4961 15.5875 69.8627 16.0368 70.3656 16.1412L85.9116 19.3799V11.2101H85.9011Z" fill="#1F1F1F"/>
<path d="M72.563 38.4887C75.3516 38.4887 77.6123 36.2342 77.6123 33.4531C77.6123 30.672 75.3516 28.4175 72.563 28.4175C69.7743 28.4175 67.5137 30.672 67.5137 33.4531C67.5137 36.2342 69.7743 38.4887 72.563 38.4887Z" fill="#2C2A2C"/>
<path d="M72.5617 36.7768C74.4016 36.7768 75.893 35.2894 75.893 33.4546C75.893 31.6198 74.4016 30.1323 72.5617 30.1323C70.7219 30.1323 69.2305 31.6198 69.2305 33.4546C69.2305 35.2894 70.7219 36.7768 72.5617 36.7768Z" fill="url(#paint4_linear_3692_84642)"/>
<rect x="13.5" y="4.5" width="34.2" height="18" rx="9" fill="#FF328C"/>
<path d="M23.6601 8.50645L23.3361 13.839C24.1326 13.5555 24.9831 13.4475 25.6446 13.4475C27.1161 13.4475 27.8856 13.893 27.8856 14.7975C27.8856 15.6885 26.9946 16.1205 25.7931 16.1205C24.8751 16.1205 23.8086 15.864 23.0661 15.3915V17.268C23.8761 17.6595 24.9561 17.889 26.0226 17.889C28.0476 17.889 29.9106 16.9575 29.9106 14.8245C29.9106 12.7185 28.3851 11.895 26.5491 11.895C26.1711 11.895 25.7526 11.949 25.3611 12.03L25.4826 10.2345L29.4921 10.248V8.50645H23.6601ZM36.4655 17.7V12.7995H38.531V11.22H32.537V12.7995H34.6025V17.7H36.4655Z" fill="#FDFEFC"/>
<defs>
<linearGradient id="paint0_linear_3692_84642" x1="31.352" y1="0" x2="31.352" y2="27.0516" gradientUnits="userSpaceOnUse">
<stop stop-color="#8ABF49"/>
<stop offset="1" stop-color="#4AAB35"/>
</linearGradient>
<linearGradient id="paint1_linear_3692_84642" x1="25.0642" y1="30.1305" x2="25.0642" y2="36.7685" gradientUnits="userSpaceOnUse">
<stop stop-color="#BDBCBC"/>
<stop offset="1" stop-color="#9D9D9C"/>
</linearGradient>
<linearGradient id="paint2_linear_3692_84642" x1="73.8521" y1="5.75532" x2="73.8521" y2="28.0003" gradientUnits="userSpaceOnUse">
<stop stop-color="#EDEDED"/>
<stop offset="0.3203" stop-color="#EAEAEA"/>
<stop offset="0.5727" stop-color="#E3E3E3"/>
<stop offset="0.801" stop-color="#D7D7D7"/>
<stop offset="1" stop-color="#C6C6C6"/>
</linearGradient>
<linearGradient id="paint3_linear_3692_84642" x1="73.8521" y1="5.75532" x2="73.8521" y2="28.0003" gradientUnits="userSpaceOnUse">
<stop stop-color="#EDEDED" stop-opacity="0"/>
<stop offset="0.1691" stop-color="#E6E6E5" stop-opacity="0.1352"/>
<stop offset="0.4523" stop-color="#D2D2D2" stop-opacity="0.3619"/>
<stop offset="0.8129" stop-color="#B2B1B1" stop-opacity="0.6503"/>
<stop offset="1" stop-color="#9D9D9C" stop-opacity="0.8"/>
</linearGradient>
<linearGradient id="paint4_linear_3692_84642" x1="72.5638" y1="30.1314" x2="72.5638" y2="36.7693" gradientUnits="userSpaceOnUse">
<stop stop-color="#BDBCBC"/>
<stop offset="1" stop-color="#9D9D9C"/>
</linearGradient>
</defs>
</svg>
