<svg width="91" height="39" viewBox="0 0 91 39" fill="none" xmlns="http://www.w3.org/2000/svg">
<path d="M66.6341 0H0.900391V26.8402H66.6341V0Z" fill="url(#paint0_linear_3692_84669)"/>
<path d="M66.6341 26.8102H0.900391V28.1994H66.6341V26.8102Z" fill="#1F1F1F"/>
<path d="M70.7874 28.7894H29.8418V32.957H70.7874V28.7894Z" fill="#1F1F1F"/>
<path d="M33.7765 27.8649H4.63672V31.1616H33.7765V27.8649Z" fill="#1F1F1F"/>
<path d="M28.0395 38.1926C30.8109 38.1926 33.0575 35.9555 33.0575 33.1957C33.0575 30.436 30.8109 28.1989 28.0395 28.1989C25.2681 28.1989 23.0215 30.436 23.0215 33.1957C23.0215 35.9555 25.2681 38.1926 28.0395 38.1926Z" fill="#2C2A2C"/>
<path d="M28.0411 36.4939C29.8695 36.4939 31.3517 35.0179 31.3517 33.1972C31.3517 31.3765 29.8695 29.9005 28.0411 29.9005C26.2127 29.9005 24.7305 31.3765 24.7305 33.1972C24.7305 35.0179 26.2127 36.4939 28.0411 36.4939Z" fill="url(#paint1_linear_3692_84669)"/>
<path d="M18.0043 38.1926C20.7757 38.1926 23.0223 35.9555 23.0223 33.1957C23.0223 30.436 20.7757 28.1989 18.0043 28.1989C15.233 28.1989 12.9863 30.436 12.9863 33.1957C12.9863 35.9555 15.233 38.1926 18.0043 38.1926Z" fill="#2C2A2C"/>
<path d="M18.0059 36.4939C19.8344 36.4939 21.3166 35.0179 21.3166 33.1972C21.3166 31.3765 19.8344 29.9005 18.0059 29.9005C16.1775 29.9005 14.6953 31.3765 14.6953 33.1972C14.6953 35.0179 16.1775 36.4939 18.0059 36.4939Z" fill="url(#paint2_linear_3692_84669)"/>
<path d="M90.5789 37.6633H0.900391V38.7H90.5789V37.6633Z" fill="#2C2A2C"/>
<path d="M82.508 24.9028L84.5068 27.5672C84.6109 27.7123 84.7775 27.7849 84.9545 27.7849H90.5867V9.79812C90.5867 5.82756 87.349 2.60343 83.3616 2.60343H75.3766C74.6478 2.60343 73.9295 2.46865 73.2528 2.19911L71.4621 1.49416C70.7854 1.22461 70.0671 1.08984 69.3383 1.08984H66.6211V24.6748H82.0603C82.2373 24.6748 82.4039 24.7577 82.508 24.9028Z" fill="url(#paint3_linear_3692_84669)"/>
<path d="M84.9538 27.7862C84.7769 27.7862 84.6103 27.7033 84.5062 27.5685L82.5073 24.9042C82.4032 24.7591 82.2366 24.6761 82.0596 24.6761H66.6309V30.0877H69.5979V34.4004C69.5979 34.5663 69.7333 34.701 69.8998 34.701H88.6913C89.7428 34.701 90.5965 33.8509 90.5965 32.8039V27.7862H84.9538Z" fill="#1F1F1F"/>
<path d="M82.508 24.9028L84.5068 27.5672C84.6109 27.7123 84.7775 27.7849 84.9545 27.7849H90.5867V9.79812C90.5867 5.82756 87.349 2.60343 83.3616 2.60343H75.3766C74.6478 2.60343 73.9295 2.46865 73.2528 2.19911L71.4621 1.49416C70.7854 1.22461 70.0671 1.08984 69.3383 1.08984H66.6211V24.6748H82.0603C82.2373 24.6748 82.4039 24.7577 82.508 24.9028Z" fill="url(#paint4_linear_3692_84669)"/>
<path d="M90.5826 11.1234H74.6853C74.4667 11.1234 74.2793 11.2997 74.2793 11.5277V14.9592C74.2793 15.4672 74.6437 15.913 75.1434 16.0166L90.593 19.2304V11.1234H90.5826Z" fill="#1F1F1F"/>
<path d="M77.3246 38.1926C80.096 38.1926 82.3426 35.9555 82.3426 33.1957C82.3426 30.436 80.096 28.1989 77.3246 28.1989C74.5533 28.1989 72.3066 30.436 72.3066 33.1957C72.3066 35.9555 74.5533 38.1926 77.3246 38.1926Z" fill="#2C2A2C"/>
<path d="M77.3263 36.4939C79.1547 36.4939 80.6369 35.0179 80.6369 33.1972C80.6369 31.3765 79.1547 29.9005 77.3263 29.9005C75.4978 29.9005 74.0156 31.3765 74.0156 33.1972C74.0156 35.0179 75.4978 36.4939 77.3263 36.4939Z" fill="url(#paint5_linear_3692_84669)"/>
<rect x="16.0488" y="4.5" width="34.2" height="18" rx="9" fill="#FF328C"/>
<path d="M24.0211 8.51995L21.7936 9.37045V11.193L23.5216 10.545V15.9585H21.7936V17.7H27.0316V15.9585H25.4926V8.51995H24.0211ZM27.9082 13.11C27.9082 15.756 29.1637 17.889 32.0932 17.889C35.0227 17.889 36.2782 15.756 36.2782 13.11C36.2782 10.464 35.0227 8.33095 32.0932 8.33095C29.1637 8.33095 27.9082 10.464 27.9082 13.11ZM34.2532 13.11C34.2532 15.0675 33.5782 16.107 32.0932 16.107C30.6082 16.107 29.9332 15.0675 29.9332 13.11C29.9332 11.1525 30.6082 10.113 32.0932 10.113C33.5782 10.113 34.2532 11.1525 34.2532 13.11ZM42.9167 17.7V12.7995H44.9822V11.22H38.9882V12.7995H41.0537V17.7H42.9167Z" fill="#FDFEFC"/>
<defs>
<linearGradient id="paint0_linear_3692_84669" x1="33.7659" y1="0" x2="33.7659" y2="26.8435" gradientUnits="userSpaceOnUse">
<stop stop-color="#8ABF49"/>
<stop offset="1" stop-color="#4AAB35"/>
</linearGradient>
<linearGradient id="paint1_linear_3692_84669" x1="28.0377" y1="29.8996" x2="28.0377" y2="36.4865" gradientUnits="userSpaceOnUse">
<stop stop-color="#BDBCBC"/>
<stop offset="1" stop-color="#9D9D9C"/>
</linearGradient>
<linearGradient id="paint2_linear_3692_84669" x1="18.0048" y1="29.8996" x2="18.0048" y2="36.4865" gradientUnits="userSpaceOnUse">
<stop stop-color="#BDBCBC"/>
<stop offset="1" stop-color="#9D9D9C"/>
</linearGradient>
<linearGradient id="paint3_linear_3692_84669" x1="78.6042" y1="1.09523" x2="78.6042" y2="27.7855" gradientUnits="userSpaceOnUse">
<stop stop-color="#EDEDED"/>
<stop offset="0.3203" stop-color="#EAEAEA"/>
<stop offset="0.5727" stop-color="#E3E3E3"/>
<stop offset="0.801" stop-color="#D7D7D7"/>
<stop offset="1" stop-color="#C6C6C6"/>
</linearGradient>
<linearGradient id="paint4_linear_3692_84669" x1="78.6042" y1="1.09523" x2="78.6042" y2="27.7855" gradientUnits="userSpaceOnUse">
<stop stop-color="#EDEDED" stop-opacity="0"/>
<stop offset="0.1691" stop-color="#E6E6E5" stop-opacity="0.1352"/>
<stop offset="0.4523" stop-color="#D2D2D2" stop-opacity="0.3619"/>
<stop offset="0.8129" stop-color="#B2B1B1" stop-opacity="0.6503"/>
<stop offset="1" stop-color="#9D9D9C" stop-opacity="0.8"/>
</linearGradient>
<linearGradient id="paint5_linear_3692_84669" x1="77.3283" y1="29.8996" x2="77.3283" y2="36.4865" gradientUnits="userSpaceOnUse">
<stop stop-color="#BDBCBC"/>
<stop offset="1" stop-color="#9D9D9C"/>
</linearGradient>
</defs>
</svg>
