<svg width="86" height="38" viewBox="0 0 86 38" fill="none" xmlns="http://www.w3.org/2000/svg">
<path d="M82.7822 21.8413L79.8159 20.5062C78.6875 19.9918 77.6343 19.3243 76.6992 18.5035L71.5513 14.0386C69.1224 11.9374 66.0487 10.7883 62.8675 10.7883H57.9883V32.3361C57.9883 32.6206 58.214 32.8504 58.4934 32.8504H71.734C71.8415 32.8504 71.9382 32.7519 71.9382 32.6425C71.9382 30.3663 73.4321 28.2651 75.6245 27.8274C76.6348 27.6304 77.5913 27.7617 78.4296 28.1447L85.0606 23.9096C84.534 23.0122 83.7494 22.279 82.7822 21.8413Z" fill="url(#paint0_linear_3692_84739)"/>
<path d="M85.0588 23.9189L78.4277 28.1541C80.0506 28.8873 81.179 30.5288 81.179 32.4549V32.8707H83.8981C84.7256 32.8707 85.4349 32.2688 85.5854 31.4481C85.7788 30.3975 85.8756 29.325 85.8756 28.2526V27.5194C85.8756 26.7971 85.8003 26.0858 85.6391 25.3854C85.5209 24.8491 85.3167 24.3676 85.0588 23.9189Z" fill="#1F1F1F"/>
<path d="M45.3833 19.6553H0.878906V26.3746H45.3833V19.6553Z" fill="url(#paint1_linear_3692_84739)"/>
<path d="M82.7822 21.8413L79.8159 20.5062C78.6875 19.9918 77.6343 19.3243 76.6992 18.5035L71.5513 14.0386C69.1224 11.9374 66.0487 10.7883 62.8675 10.7883H57.9883V32.3361C57.9883 32.6206 58.214 32.8504 58.4934 32.8504H71.734C71.8415 32.8504 71.9382 32.7519 71.9382 32.6425C71.9382 30.3663 73.4321 28.2651 75.6245 27.8274C76.6348 27.6304 77.5913 27.7617 78.4296 28.1447L85.0606 23.9096C84.534 23.0122 83.7494 22.279 82.7822 21.8413Z" fill="url(#paint2_linear_3692_84739)"/>
<path d="M62.1926 20.2122L77.5074 21.7334C77.8191 21.7662 77.991 21.3613 77.7439 21.1534L70.6937 15.0578C68.6732 13.3178 66.1261 12.3438 63.493 12.2891L62.4398 12.2672C62.0636 12.2563 61.752 12.5737 61.752 12.9567V19.7088C61.752 19.9715 61.9454 20.1794 62.1926 20.2122Z" fill="#1F1F1F"/>
<path d="M57.9898 26.3723H0.878906V27.7403H57.9898V26.3723Z" fill="#1F1F1F"/>
<path d="M57.9909 27.0625H23.4277V32.4576H57.9909V27.0625Z" fill="#1F1F1F"/>
<path d="M27.2317 27.413H6.02734V30.6741H27.2317V27.413Z" fill="#1F1F1F"/>
<path d="M20.2991 37.1528C22.8513 37.1528 24.9204 35.0459 24.9204 32.447C24.9204 29.8482 22.8513 27.7413 20.2991 27.7413C17.7468 27.7413 15.6777 29.8482 15.6777 32.447C15.6777 35.0459 17.7468 37.1528 20.2991 37.1528Z" fill="#2C2A2C"/>
<path d="M20.3012 35.5433C21.981 35.5433 23.3427 34.1567 23.3427 32.4463C23.3427 30.7358 21.981 29.3492 20.3012 29.3492C18.6215 29.3492 17.2598 30.7358 17.2598 32.4463C17.2598 34.1567 18.6215 35.5433 20.3012 35.5433Z" fill="url(#paint3_linear_3692_84739)"/>
<path d="M76.5627 37.1532C79.115 37.1532 81.184 35.0464 81.184 32.4475C81.184 29.8486 79.115 27.7418 76.5627 27.7418C74.0104 27.7418 71.9414 29.8486 71.9414 32.4475C71.9414 35.0464 74.0104 37.1532 76.5627 37.1532Z" fill="#2C2A2C"/>
<path d="M76.5649 35.5438C78.2447 35.5438 79.6064 34.1572 79.6064 32.4467C79.6064 30.7363 78.2447 29.3497 76.5649 29.3497C74.8852 29.3497 73.5234 30.7363 73.5234 32.4467C73.5234 34.1572 74.8852 35.5438 76.5649 35.5438Z" fill="url(#paint4_linear_3692_84739)"/>
<path d="M85.8789 36.6056H0.878906V37.6999H85.8789V36.6056Z" fill="#2C2A2C"/>
<path d="M53.8743 26.3734H47.0391V18.702H50.4567C52.4879 19.3586 53.8743 21.2737 53.8743 23.4515V26.3734Z" fill="#1F1F1F"/>
<path d="M50.0389 19.6541L51.393 7.3536L47.3413 0.699951L17.2598 5.64642V9.34532L42.5051 5.35094L44.6115 6.43435L49.2651 7.66002L48.2118 19.6541H50.0389Z" fill="#1F1F1F"/>
<path d="M45.7575 5.97061L44.6387 6.11987L46.5024 20.6053L47.6213 20.456L45.7575 5.97061Z" fill="#1F1F1F"/>
<path d="M17.8299 7.44238H16.0781V9.79524H17.8299V7.44238Z" fill="#1F1F1F"/>
<path d="M19.5898 7.44238H20.5786V9.57637C20.5786 9.90467 20.3099 10.1783 19.9875 10.1783H19.5898V7.44238Z" fill="#1F1F1F"/>
<path d="M16.8486 8.05298H17.8374V10.7889H17.429C17.1066 10.7889 16.8379 10.5262 16.8379 10.187V8.05298H16.8486Z" fill="#1F1F1F"/>
<defs>
<linearGradient id="paint0_linear_3692_84739" x1="71.5268" y1="10.795" x2="71.5268" y2="32.8576" gradientUnits="userSpaceOnUse">
<stop stop-color="#EDEDED"/>
<stop offset="0.3203" stop-color="#EAEAEA"/>
<stop offset="0.5727" stop-color="#E3E3E3"/>
<stop offset="0.801" stop-color="#D7D7D7"/>
<stop offset="1" stop-color="#C6C6C6"/>
</linearGradient>
<linearGradient id="paint1_linear_3692_84739" x1="23.129" y1="19.658" x2="23.129" y2="26.3756" gradientUnits="userSpaceOnUse">
<stop stop-color="#8ABF49"/>
<stop offset="1" stop-color="#4AAB35"/>
</linearGradient>
<linearGradient id="paint2_linear_3692_84739" x1="71.5268" y1="10.795" x2="71.5268" y2="32.8576" gradientUnits="userSpaceOnUse">
<stop stop-color="#EDEDED" stop-opacity="0"/>
<stop offset="0.1691" stop-color="#E6E6E5" stop-opacity="0.1352"/>
<stop offset="0.4523" stop-color="#D2D2D2" stop-opacity="0.3619"/>
<stop offset="0.8129" stop-color="#B2B1B1" stop-opacity="0.6503"/>
<stop offset="1" stop-color="#9D9D9C" stop-opacity="0.8"/>
</linearGradient>
<linearGradient id="paint3_linear_3692_84739" x1="20.302" y1="29.346" x2="20.302" y2="35.5502" gradientUnits="userSpaceOnUse">
<stop stop-color="#BDBCBC"/>
<stop offset="1" stop-color="#9D9D9C"/>
</linearGradient>
<linearGradient id="paint4_linear_3692_84739" x1="76.5606" y1="29.3464" x2="76.5606" y2="35.5507" gradientUnits="userSpaceOnUse">
<stop stop-color="#BDBCBC"/>
<stop offset="1" stop-color="#9D9D9C"/>
</linearGradient>
</defs>
</svg>
