<svg width="42" height="42" viewBox="0 0 42 42" fill="none" xmlns="http://www.w3.org/2000/svg">
<path d="M16.202 18.343C16.202 19.2626 16.462 20.1231 16.9132 20.854L23.3264 16.0609H16.202V18.343Z" fill="#014DF5"/>
<path d="M25.798 12.3464C25.798 12.3185 25.775 12.2964 25.748 12.2964H16.252C16.2249 12.2964 16.202 12.3185 16.202 12.3464V13.5999H25.798V12.3464Z" fill="#014DF5"/>
<path d="M25.798 18.3431V17.2865L18.7294 22.5685C19.4061 22.9335 20.1789 23.1411 21 23.1411C23.6455 23.1411 25.798 20.9886 25.798 18.3431Z" fill="#014DF5"/>
<path d="M13.7411 18.343V12.3465C13.7411 10.9618 14.8682 9.83555 16.252 9.83555H25.748C27.1318 9.83555 28.2589 10.9618 28.2589 12.3465V12.3752L36.161 6.46898C36.0585 6.36152 35.9543 6.2557 35.8493 6.1507C31.8831 2.18449 26.6093 0 21 0C15.3907 0 10.1169 2.18449 6.1507 6.1507C2.18449 10.1169 0 15.3907 0 21C0 24.7185 0.959766 28.2893 2.76281 31.4295L14.9371 22.3305C14.1816 21.1854 13.7411 19.8146 13.7411 18.343V18.343Z" fill="#014DF5"/>
<path d="M37.7622 8.34424L28.2589 15.4473V18.343C28.2589 21.9261 25.6487 24.9113 22.2305 25.4978V29.4049H25.3878C26.0671 29.4049 26.6183 29.9562 26.6183 30.6354C26.6183 31.3146 26.0671 31.8659 25.3878 31.8659H16.6121C15.9329 31.8659 15.3817 31.3146 15.3817 30.6354C15.3817 29.9562 15.9329 29.4049 16.6121 29.4049H19.7695V25.4978C18.6063 25.2976 17.5366 24.821 16.6318 24.1369L4.11386 33.4917C4.72827 34.3186 5.40831 35.1069 6.1507 35.8493C10.1169 39.8155 15.3907 42 21 42C26.6093 42 31.8831 39.8155 35.8493 35.8493C39.8155 31.8823 42 26.6093 42 21C42 16.3702 40.5119 11.9692 37.7622 8.34424V8.34424Z" fill="#014DF5"/>
</svg>
