<svg width="42" height="42" viewBox="0 0 42 42" fill="none" xmlns="http://www.w3.org/2000/svg">
<g clip-path="url(#clip0_136:686)">
<path d="M37.8 4.2H35.7V2.1C35.7 0.84 34.86 0 33.6 0C32.34 0 31.5 0.84 31.5 2.1V4.2H10.5V2.1C10.5 0.84 9.66 0 8.4 0C7.14 0 6.3 0.84 6.3 2.1V4.2H2.1C1.05 4.2 0 5.04 0 6.3V35.7C0 36.96 1.05 37.8 2.1 37.8H14.91C13.44 35.28 12.6 32.34 12.6 29.4C12.6 20.16 20.16 12.6 29.4 12.6C33.39 12.6 36.96 14.07 39.9 16.38V6.3C39.9 5.25 38.85 4.2 37.8 4.2Z" fill="#014DF5"/>
<path d="M29.4 16.7999C22.47 16.7999 16.8 22.4699 16.8 29.3999C16.8 36.3299 22.47 41.9999 29.4 41.9999C36.33 41.9999 42 36.3299 42 29.3999C42 22.4699 36.33 16.7999 29.4 16.7999ZM33.6 31.4999H29.4C28.14 31.4999 27.3 30.6599 27.3 29.3999V23.0999C27.3 21.8399 28.14 20.9999 29.4 20.9999C30.66 20.9999 31.5 21.8399 31.5 23.0999V27.2999H33.6C34.86 27.2999 35.7 28.1399 35.7 29.3999C35.7 30.6599 34.86 31.4999 33.6 31.4999Z" fill="#014DF5"/>
</g>
<defs>
<clipPath id="clip0_136:686">
<rect width="42" height="42" fill="white"/>
</clipPath>
</defs>
</svg>
