<svg width="42" height="42" viewBox="0 0 42 42" fill="none" xmlns="http://www.w3.org/2000/svg">
<path d="M18.375 13.1244V10.4994H2.625C1.17863 10.4994 0 11.678 0 13.1244V18.3744H18.9289C18.564 16.7705 18.375 15.0433 18.375 13.1244Z" fill="#014DF5"/>
<path d="M41.8924 23.6244C40.1021 26.3833 37.3721 28.73 33.4609 30.977C32.8597 31.3209 32.1825 31.4994 31.5 31.4994C30.8175 31.4994 30.1402 31.3209 29.547 30.9823C25.6357 28.73 22.9058 26.3806 21.1129 23.6244H0V36.7494C0 38.1984 1.17863 39.3744 2.625 39.3744H39.375C40.824 39.3744 42 38.1984 42 36.7494V23.6244H41.8924V23.6244ZM11.8125 31.4994H6.5625C5.838 31.4994 5.25 30.9114 5.25 30.1869C5.25 29.4624 5.838 28.8744 6.5625 28.8744H11.8125C12.537 28.8744 13.125 29.4624 13.125 30.1869C13.125 30.9114 12.537 31.4994 11.8125 31.4994Z" fill="#014DF5"/>
<path d="M41.2046 6.66942L32.0171 2.73192C31.6837 2.59017 31.3136 2.59017 30.9803 2.73192L21.7928 6.66942C21.3124 6.87417 21 7.3493 21 7.8743V13.1243C21 20.3457 23.6696 24.5667 30.8464 28.701C31.0485 28.8165 31.2742 28.8743 31.5 28.8743C31.7258 28.8743 31.9515 28.8165 32.1536 28.701C39.3304 24.5772 42 20.3562 42 13.1243V7.8743C42 7.3493 41.6876 6.87417 41.2046 6.66942ZM36.4639 12.6334L31.2139 19.1959C30.9619 19.5057 30.5839 19.6868 30.1875 19.6868C30.1691 19.6868 30.1481 19.6868 30.1324 19.6868C29.715 19.6684 29.3291 19.4532 29.0955 19.104L26.4705 15.1665C26.0689 14.5628 26.2316 13.749 26.8354 13.3474C27.4339 12.9484 28.2503 13.1059 28.6545 13.7123L30.2846 16.1562L34.4111 10.9954C34.8653 10.431 35.6921 10.3418 36.2565 10.7907C36.8235 11.2395 36.9127 12.0664 36.4639 12.6334Z" fill="#014DF5"/>
</svg>
