<svg width="42" height="42" viewBox="0 0 42 42" fill="none" xmlns="http://www.w3.org/2000/svg">
<g clip-path="url(#clip0_137:718)">
<path d="M33.6875 0H27.2808H26.25H10.5H9.46925H3.0625C1.3825 0 0 1.3825 0 3.0625V33.6875C0 35.3675 1.3825 36.75 3.0625 36.75H17.08C16.2225 34.8775 15.75 32.8125 15.75 30.625C15.75 22.4175 22.4175 15.75 30.625 15.75C32.8125 15.75 34.8775 16.2225 36.75 17.08V3.0625C36.75 1.3825 35.3675 0 33.6875 0ZM25.4625 15.645C25.2875 15.715 25.1125 15.75 24.9375 15.75C24.605 15.75 24.29 15.6275 24.045 15.4L18.375 10.115L12.705 15.4C12.32 15.75 11.76 15.855 11.2875 15.645C10.815 15.435 10.5 14.9625 10.5 14.4375V2.625H26.25V14.4375C26.25 14.9625 25.935 15.435 25.4625 15.645Z" fill="#014DF5"/>
<path d="M30.625 19.25C24.353 19.25 19.25 24.353 19.25 30.625C19.25 36.897 24.353 42 30.625 42C36.897 42 42 36.897 42 30.625C42 24.353 36.897 19.25 30.625 19.25ZM28.875 34.125C29.358 34.125 29.75 34.517 29.75 35C29.75 35.483 29.358 35.875 28.875 35.875H24.5C24.017 35.875 23.625 35.483 23.625 35V32.8125C23.625 31.1237 24.8762 29.75 26.4145 29.75H26.9605C27.5327 29.75 28 29.1602 28 28.4375C28 27.7147 27.5327 27.125 26.9605 27.125H24.5C24.017 27.125 23.625 26.733 23.625 26.25C23.625 25.767 24.017 25.375 24.5 25.375H26.9605C28.4987 25.375 29.75 26.7487 29.75 28.4375C29.75 30.1262 28.4987 31.5 26.9605 31.5H26.4145C25.8422 31.5 25.375 32.0897 25.375 32.8125V34.125H28.875ZM37.625 30.625V35C37.625 35.483 37.233 35.875 36.75 35.875C36.267 35.875 35.875 35.483 35.875 35V31.5H34.2895C32.7512 31.5 31.5 30.1262 31.5 28.4375V26.25C31.5 25.767 31.892 25.375 32.375 25.375C32.858 25.375 33.25 25.767 33.25 26.25V28.4375C33.25 29.1602 33.7172 29.75 34.2895 29.75H35.875V26.25C35.875 25.767 36.267 25.375 36.75 25.375C37.233 25.375 37.625 25.767 37.625 26.25V30.625Z" fill="#014DF5"/>
</g>
<defs>
<clipPath id="clip0_137:718">
<rect width="42" height="42" fill="white"/>
</clipPath>
</defs>
</svg>
