<svg width="75" height="75" viewBox="0 0 75 75" fill="none" xmlns="http://www.w3.org/2000/svg">
<circle cx="46.0312" cy="50.5312" r="19.9688" fill="#F7F9FB"/>
<circle cx="31.5938" cy="17.1562" r="11.1562" fill="#F7F9FB"/>
<path d="M28.207 49.428L34.879 56.121C35.422 56.664 36.172 57 37 57C37.341 57 37.662 56.931 37.968 56.826L49.324 52.849C50.298 52.508 51 51.59 51 50.5C51 49.119 49.881 48 48.5 48C48.282 48 48.074 48.037 47.873 48.089L37.907 50.665L29.121 41.879C28.578 41.336 27.828 41 27 41C26.33 41 25.713 41.219 25.213 41.59" stroke="#48538B" stroke-width="2" stroke-miterlimit="10"/>
<path d="M59.7419 40.109L60.1939 42.231" stroke="#48538B" stroke-width="2" stroke-miterlimit="10"/>
<path d="M57.8359 31.1765L59.2809 37.9525" stroke="#48538B" stroke-width="2" stroke-miterlimit="10"/>
<path d="M38.203 25.6639L35.551 13.23L54.435 9.19995L57.088 21.634" stroke="#48538B" stroke-width="2" stroke-miterlimit="10"/>
<path d="M48.7091 23.4216L49.8111 28.5836L44.0571 29.8106L42.9561 24.6486" stroke="#48538B" stroke-width="2" stroke-miterlimit="10"/>
<path d="M47.625 10.625L48.515 14.922L43.322 16.03L42.433 11.733" stroke="#48538B" stroke-width="2" stroke-miterlimit="10"/>
<path d="M20.5723 37.9207C24.5723 49.9207 25.0003 53.9997 25.0003 65.9997" stroke="#48538B" stroke-width="2" stroke-miterlimit="10"/>
<path d="M37.7617 56.8904C38.5247 59.1344 38.9997 61.9334 38.9997 66.0004" stroke="#48538B" stroke-width="2" stroke-miterlimit="10"/>
<path d="M16.16 33.964L16.395 34.54C17.206 36.566 19.184 38 21.5 38C24.537 38 27 35.538 27 32.5C27 31.778 26.857 31.091 26.48 30.093L24.314 24.668" stroke="#48538B" stroke-width="2" stroke-miterlimit="10"/>
<path d="M27.468 18.3542L22.046 19.7982C21.547 20.9882 21 22.0002 21 24.0002C21 25.0512 21.189 25.7452 21.326 26.4052L27.25 22.9472C27.092 22.3242 27 21.6732 27 21.0002C27 20.0692 27.176 19.1842 27.468 18.3542Z" stroke="#48538B" stroke-width="2" stroke-miterlimit="10"/>
<path d="M25.947 35.736L28.463 41.384" stroke="#48538B" stroke-width="2" stroke-miterlimit="10"/>
<path d="M22.047 19.797C20.671 18.674 18.915 18 17 18C12.582 18 9 21.582 9 26C9 30.181 12.072 33.608 16.16 33.964C17.295 30.953 18.945 28.521 21.326 26.405" stroke="#48538B" stroke-width="2" stroke-miterlimit="10"/>
<path d="M37.0839 49.8417L32.1919 26.9457L59.4599 21.1277L64.5819 45.1017L49.6599 48.2857" stroke="#48538B" stroke-width="2" stroke-miterlimit="10"/>
</svg>
