<svg width="76" height="75" viewBox="0 0 76 75" fill="none" xmlns="http://www.w3.org/2000/svg">
<circle cx="46.3646" cy="50.5312" r="19.9688" fill="#F7F9FB"/>
<circle cx="31.9271" cy="17.1562" r="11.1562" fill="#F7F9FB"/>
<path d="M30.3334 52H32.3334" stroke="#48538B" stroke-width="2" stroke-miterlimit="10"/>
<path d="M34.3334 52H49.3334" stroke="#48538B" stroke-width="2" stroke-miterlimit="10"/>
<path d="M64.3334 38.809C64.3334 32.256 60.2204 27.901 58.2754 25.906C57.7094 25.324 56.9384 25 56.1274 25H47.3334" stroke="#48538B" stroke-width="2" stroke-miterlimit="10"/>
<path d="M13.3334 52V20C13.3334 18.343 14.6764 17 16.3334 17H44.3334C45.9904 17 47.3334 18.343 47.3334 20V49" stroke="#48538B" stroke-width="2" stroke-miterlimit="10"/>
<path d="M51.3334 56H27.3334" stroke="#48538B" stroke-width="2" stroke-miterlimit="10"/>
<path d="M22.3334 61C25.0948 61 27.3334 58.7614 27.3334 56C27.3334 53.2386 25.0948 51 22.3334 51C19.572 51 17.3334 53.2386 17.3334 56C17.3334 58.7614 19.572 61 22.3334 61Z" stroke="#48538B" stroke-width="2" stroke-miterlimit="10"/>
<path d="M22.3334 57C22.8857 57 23.3334 56.5523 23.3334 56C23.3334 55.4477 22.8857 55 22.3334 55C21.7811 55 21.3334 55.4477 21.3334 56C21.3334 56.5523 21.7811 57 22.3334 57Z" stroke="#48538B" stroke-width="2" stroke-miterlimit="10"/>
<path d="M56.3334 61C59.0948 61 61.3334 58.7614 61.3334 56C61.3334 53.2386 59.0948 51 56.3334 51C53.572 51 51.3334 53.2386 51.3334 56C51.3334 58.7614 53.572 61 56.3334 61Z" stroke="#48538B" stroke-width="2" stroke-miterlimit="10"/>
<path d="M56.3334 57C56.8857 57 57.3334 56.5523 57.3334 56C57.3334 55.4477 56.8857 55 56.3334 55C55.7811 55 55.3334 55.4477 55.3334 56C55.3334 56.5523 55.7811 57 56.3334 57Z" stroke="#48538B" stroke-width="2" stroke-miterlimit="10"/>
<path d="M44.3334 61H65.3334" stroke="#48538B" stroke-width="2" stroke-miterlimit="10"/>
<path d="M40.3334 61H42.3334" stroke="#48538B" stroke-width="2" stroke-miterlimit="10"/>
<path d="M12.3334 61H38.3334" stroke="#48538B" stroke-width="2" stroke-miterlimit="10"/>
<path d="M51.3334 16H57.3334" stroke="#48538B" stroke-width="2" stroke-miterlimit="10"/>
<path d="M59.3334 16H61.3334" stroke="#48538B" stroke-width="2" stroke-miterlimit="10"/>
<path d="M19.3334 13H34.3334" stroke="#48538B" stroke-width="2" stroke-miterlimit="10"/>
<path d="M36.3334 13H38.3334" stroke="#48538B" stroke-width="2" stroke-miterlimit="10"/>
<path d="M61.3334 56H64.3334C64.8854 56 65.3334 55.552 65.3334 55V53C65.3334 52.448 64.8854 52 64.3334 52H59.3334" stroke="#48538B" stroke-width="2" stroke-miterlimit="10"/>
<path d="M64.3334 44H60.8334C60.3744 44 59.9744 43.688 59.8634 43.243L59.3634 41.243C59.2064 40.611 59.6834 40 60.3334 40H64.3334" stroke="#48538B" stroke-width="2" stroke-miterlimit="10"/>
<path d="M51.3334 36H61.5244C63.0764 36 64.3334 37.257 64.3334 38.809V52" stroke="#48538B" stroke-width="2" stroke-miterlimit="10"/>
<path d="M47.3334 21H56.8334C57.2924 21 57.6924 21.312 57.8034 21.757L58.3034 23.757C58.4604 24.389 57.9834 25 57.3334 25H56.1274" stroke="#48538B" stroke-width="2" stroke-miterlimit="10"/>
<path d="M19.3334 52H13.3334C12.7814 52 12.3334 52.448 12.3334 53V55C12.3334 55.552 12.7814 56 13.3334 56H17.3334" stroke="#48538B" stroke-width="2" stroke-miterlimit="10"/>
<path d="M35.3334 33H19.3334C18.7814 33 18.3334 32.552 18.3334 32V23C18.3334 22.448 18.7814 22 19.3334 22H35.3334C35.8854 22 36.3334 22.448 36.3334 23V32C36.3334 32.552 35.8854 33 35.3334 33Z" stroke="#48538B" stroke-width="2" stroke-miterlimit="10"/>
<path d="M35.9783 22.2373L27.8873 27.8323C27.5513 28.0563 27.1133 28.0563 26.7783 27.8323L18.6893 22.2373" stroke="#48538B" stroke-width="2" stroke-miterlimit="10"/>
<path d="M17.3334 37V42" stroke="#48538B" stroke-width="2" stroke-miterlimit="10"/>
<path d="M17.3334 44V46" stroke="#48538B" stroke-width="2" stroke-miterlimit="10"/>
</svg>
