<svg width="76" height="75" viewBox="0 0 76 75" fill="none" xmlns="http://www.w3.org/2000/svg">
<circle cx="46.6979" cy="50.5312" r="19.9688" fill="#F7F9FB"/>
<circle cx="32.2604" cy="17.1562" r="11.1562" fill="#F7F9FB"/>
<path d="M40.6666 26.2754L32.6046 29.4324" stroke="#48538B" stroke-width="2" stroke-miterlimit="10"/>
<path d="M21.2426 30.598C17.4186 28.468 13.9206 24.664 13.9206 24.664C13.7576 24.491 13.6666 24.257 13.6666 24C13.6666 23.559 13.9526 23.184 14.3506 23.051L17.3506 22.051C17.4496 22.018 17.5556 22 17.6666 22C17.8006 22 17.9266 22.035 18.0416 22.083L22.6666 24L53.6496 9.461C54.2966 9.157 55.0026 9 55.7166 9C56.5256 9 57.3206 9.201 58.0306 9.586L61.8226 11.638C62.9346 12.239 63.6666 13.44 63.6666 14.795C63.6666 16.331 62.7116 17.645 61.3616 18.172L54.9376 20.688" stroke="#48538B" stroke-width="2" stroke-miterlimit="10"/>
<path d="M39.4416 20.547L37.8476 21.295" stroke="#48538B" stroke-width="2" stroke-miterlimit="10"/>
<path d="M43.4556 18.663L41.8546 19.414" stroke="#48538B" stroke-width="2" stroke-miterlimit="10"/>
<path d="M60.2446 10.7841L45.8676 17.5311" stroke="#48538B" stroke-width="2" stroke-miterlimit="10"/>
<path d="M40.6666 23V30" stroke="#48538B" stroke-width="2" stroke-miterlimit="10"/>
<path d="M51.8856 18.2656L47.5206 36.8326" stroke="#48538B" stroke-width="2" stroke-miterlimit="10"/>
<path d="M36.1586 17.668L30.0226 12.765C29.7996 12.586 29.6666 12.309 29.6666 12C29.6666 11.532 29.9886 11.139 30.4226 11.03L34.4236 10.029C34.5006 10.01 34.5826 10 34.6666 10C34.8056 10 34.9596 10.036 35.0786 10.089L43.9776 14" stroke="#48538B" stroke-width="2" stroke-miterlimit="10"/>
<path d="M13.2206 37.753C13.5246 37.246 13.8526 36.756 14.2036 36.283" stroke="#48538B" stroke-width="2" stroke-miterlimit="10"/>
<path d="M15.8546 34.355C19.1186 31.049 23.6526 29 28.6666 29C38.6076 29 46.6666 37.059 46.6666 47C46.6666 56.941 38.6076 65 28.6666 65C18.7256 65 10.6666 56.941 10.6666 47C10.6666 44.588 11.1416 42.286 12.0026 40.184" stroke="#48538B" stroke-width="2" stroke-miterlimit="10"/>
<path d="M36.4376 58.646C34.2146 60.133 31.5416 61 28.6666 61C20.9346 61 14.6666 54.732 14.6666 47C14.6666 39.268 20.9346 33 28.6666 33C36.3986 33 42.6666 39.268 42.6666 47C42.6666 49.871 41.8016 52.541 40.3196 54.762" stroke="#48538B" stroke-width="2" stroke-miterlimit="10"/>
<path d="M39.2176 56.203C38.8076 56.672 38.3676 57.113 37.9006 57.523" stroke="#48538B" stroke-width="2" stroke-miterlimit="10"/>
<path d="M28.6666 36V39" stroke="#48538B" stroke-width="2" stroke-miterlimit="10"/>
<path d="M28.6666 58V55" stroke="#48538B" stroke-width="2" stroke-miterlimit="10"/>
<path d="M39.6666 47H36.6666" stroke="#48538B" stroke-width="2" stroke-miterlimit="10"/>
<path d="M17.6666 47H20.6666" stroke="#48538B" stroke-width="2" stroke-miterlimit="10"/>
<path d="M23.0206 43.479L28.6666 48L35.2496 41.417" stroke="#48538B" stroke-width="2" stroke-miterlimit="10"/>
<path d="M58.6666 38V43" stroke="#48538B" stroke-width="2" stroke-miterlimit="10"/>
<path d="M58.6666 47V52" stroke="#48538B" stroke-width="2" stroke-miterlimit="10"/>
<path d="M65.6666 45H60.6666" stroke="#48538B" stroke-width="2" stroke-miterlimit="10"/>
<path d="M56.6666 45H51.6666" stroke="#48538B" stroke-width="2" stroke-miterlimit="10"/>
</svg>
