<svg width="75" height="75" viewBox="0 0 75 75" fill="none" xmlns="http://www.w3.org/2000/svg">
<circle cx="46.0312" cy="50.5312" r="19.9688" fill="#F7F9FB"/>
<circle cx="31.5938" cy="17.1562" r="11.1562" fill="#F7F9FB"/>
<path d="M16.636 33.852C17.463 32.813 18.896 32 20 32C22.583 32 24 33.183 24 36C24 37 24.25 40 26 40C28.719 40 27.549 37 30.346 37C32.58 37 33 39.531 33 41C33 42.534 32.127 44.326 30.662 45.661" stroke="#48538B" stroke-width="2" stroke-miterlimit="10"/>
<path d="M49.331 22C43.741 22 43.896 24.023 42 25C39.906 26.078 36 25.864 36 28.594C36 30.314 37.149 30.817 38.645 31.32" stroke="#48538B" stroke-width="2" stroke-miterlimit="10"/>
<path d="M17 17H15V19H17V17Z" fill="#48538B"/>
<path d="M21 19H19V21H21V19Z" fill="#48538B"/>
<path d="M11 23H9V25H11V23Z" fill="#48538B"/>
<path d="M13 27H11V29H13V27Z" fill="#48538B"/>
<path d="M13 19H11V21H13V19Z" fill="#48538B"/>
<path d="M57 58H55V60H57V58Z" fill="#48538B"/>
<path d="M51 64H49V66H51V64Z" fill="#48538B"/>
<path d="M47 62H45V64H47V62Z" fill="#48538B"/>
<path d="M55 62H53V64H55V62Z" fill="#48538B"/>
<path d="M35 7H33V9H35V7Z" fill="#48538B"/>
<path d="M26 16H24V18H26V16Z" fill="#48538B"/>
<path d="M41 10H39V12H41V10Z" fill="#48538B"/>
<path d="M29 10H27V12H29V10Z" fill="#48538B"/>
<path d="M53.729 51.696C49.893 56.742 43.827 60 37 60C25.402 60 16 50.598 16 39C16 27.402 25.402 18 37 18C48.598 18 58 27.402 58 39C58 39.675 57.969 40.342 57.906 41" stroke="#48538B" stroke-width="2" stroke-miterlimit="10"/>
<path d="M39.104 41.444C39.037 41.311 39 41.159 39 41C39 40.89 39.018 40.783 39.051 40.684L41.051 34.684C41.158 34.361 41.428 34.111 41.762 34.029L49.756 32.03C49.834 32.011 49.916 32 50 32C50.393 32 50.731 32.226 50.896 32.555L53.897 38.556C53.963 38.689 54 38.841 54 39C54 39.11 53.982 39.217 53.949 39.316L51.949 45.316C51.842 45.637 51.576 45.886 51.244 45.969L43.25 47.968C43.17 47.989 43.086 48 43 48C42.607 48 42.268 47.773 42.104 47.444L39.104 41.444Z" stroke="#48538B" stroke-width="2" stroke-miterlimit="10"/>
<path d="M39.0001 41.0004L47.2451 38.9704C47.5761 38.8874 47.8421 38.6384 47.9491 38.3174L50.2101 32.0244" stroke="#48538B" stroke-width="2" stroke-miterlimit="10"/>
<path d="M47.621 38.782L51.592 45.805" stroke="#48538B" stroke-width="2" stroke-miterlimit="10"/>
<path d="M10.5331 53.287C10.8871 54.283 11.5821 55.735 12.2911 56.458C13.7131 57.907 15.5761 59 18.0201 59C23.7041 58.999 30.8541 57.146 38.0001 50" stroke="#48538B" stroke-width="2" stroke-miterlimit="10"/>
<path d="M10.178 47.1445C9.98602 48.4855 9.94802 49.7415 10.073 50.8905" stroke="#48538B" stroke-width="2" stroke-miterlimit="10"/>
<path d="M60.2871 22.5127C61.2831 22.8667 62.1481 23.3997 62.8711 24.1087C64.3201 25.5287 65.0001 27.5557 65.0001 29.9997C64.9991 35.6837 63.7341 42.2657 57.0001 48.9997" stroke="#48538B" stroke-width="2" stroke-miterlimit="10"/>
<path d="M54.0001 22.1793C55.3401 21.9863 56.5961 21.9483 57.7451 22.0733" stroke="#48538B" stroke-width="2" stroke-miterlimit="10"/>
<path d="M32 50H38V56" stroke="#48538B" stroke-width="2" stroke-miterlimit="10"/>
<path d="M57 44V49H62" stroke="#48538B" stroke-width="2" stroke-miterlimit="10"/>
</svg>
