<svg width="61" height="60" viewBox="0 0 61 60" fill="none" xmlns="http://www.w3.org/2000/svg">
<g clip-path="url(#clip0_4162_6928)">
<path d="M56.3334 55H0.333374" stroke="#48538B" stroke-width="2" stroke-miterlimit="10"/>
<path d="M49.3334 59H21.3334" stroke="#48538B" stroke-width="2" stroke-miterlimit="10"/>
<path d="M49.3295 47.763C50.3335 48.609 51.6895 49 53.3335 49C57.0835 49 59.3335 46.965 59.3335 42.143C59.3335 35.072 55.5415 31 53.3335 31C52.1765 31 50.5855 32.117 49.3325 34.197" stroke="#48538B" stroke-width="2" stroke-miterlimit="10"/>
<path d="M53.3334 49V55" stroke="#48538B" stroke-width="2" stroke-miterlimit="10"/>
<path d="M7.33337 51C11.0834 51 13.3334 49.19 13.3334 44.905C13.3334 38.619 9.54137 35 7.33337 35C5.12537 35 1.33337 38.619 1.33337 44.905C1.33337 49.191 3.58337 51 7.33337 51Z" stroke="#48538B" stroke-width="2" stroke-miterlimit="10"/>
<path d="M7.33337 51V55" stroke="#48538B" stroke-width="2" stroke-miterlimit="10"/>
<path d="M58.3334 55H60.3334" stroke="#48538B" stroke-width="2" stroke-miterlimit="10"/>
<path d="M49.3334 26V55" stroke="#48538B" stroke-width="2" stroke-miterlimit="10"/>
<path d="M11.3334 37.842V26" stroke="#48538B" stroke-width="2" stroke-miterlimit="10"/>
<path d="M11.3334 54.9993V49.9033" stroke="#48538B" stroke-width="2" stroke-miterlimit="10"/>
<path d="M30.3334 23C30.3334 25.761 28.0944 28 25.3334 28C22.5724 28 20.3334 25.761 20.3334 23" stroke="#48538B" stroke-width="2" stroke-miterlimit="10"/>
<path d="M40.3334 23C40.3334 25.761 38.0944 28 35.3334 28C32.5724 28 30.3334 25.761 30.3334 23" stroke="#48538B" stroke-width="2" stroke-miterlimit="10"/>
<path d="M20.3334 23C20.3334 25.761 18.0944 28 15.3334 28C12.5724 28 10.3334 25.761 10.3334 23V22.052C10.3334 21.371 10.5654 20.71 10.9904 20.178L13.7324 16.75C14.1124 16.276 14.6874 16 15.2944 16H45.3714C45.9794 16 46.5534 16.276 46.9334 16.751L49.6754 20.179C50.1014 20.71 50.3334 21.371 50.3334 22.052V23C50.3334 25.761 48.0944 28 45.3334 28C42.5724 28 40.3334 25.761 40.3334 23" stroke="#48538B" stroke-width="2" stroke-miterlimit="10"/>
<path d="M45.3334 28V31C45.3334 31.552 44.8854 32 44.3334 32H16.3334C15.7814 32 15.3334 31.552 15.3334 31V28" stroke="#48538B" stroke-width="2" stroke-miterlimit="10"/>
<path d="M14.3334 36H45.3334" stroke="#48538B" stroke-width="2" stroke-miterlimit="10"/>
<path d="M17.3334 46V41C17.3334 40.448 17.7814 40 18.3334 40H29.3334C29.8854 40 30.3334 40.448 30.3334 41V46" stroke="#48538B" stroke-width="2" stroke-miterlimit="10"/>
<path d="M34.3334 55V41C34.3334 40.448 34.7814 40 35.3334 40H42.3334C42.8854 40 43.3334 40.448 43.3334 41V55" stroke="#48538B" stroke-width="2" stroke-miterlimit="10"/>
<path d="M16.3334 49H31.3334" stroke="#48538B" stroke-width="2" stroke-miterlimit="10"/>
<path d="M38.0754 15.9997C37.5394 13.5447 37.3334 11.0367 37.3334 8.70573C42.4514 6.70573 44.7864 4.87073 48.3334 1.55273C51.8804 4.87073 54.2154 6.70573 59.3334 8.70573C59.3334 16.0327 57.3014 25.1147 49.3334 28.8047" stroke="#48538B" stroke-width="2" stroke-miterlimit="10"/>
<path d="M53.3334 9H51.3334V11H53.3334V9Z" fill="#48538B"/>
<path d="M56.3334 11H54.3334V13H56.3334V11Z" fill="#48538B"/>
<path d="M50.3334 7H48.3334V9H50.3334V7Z" fill="#48538B"/>
<path d="M9.33337 2V7" stroke="#48538B" stroke-width="2" stroke-miterlimit="10"/>
<path d="M9.33337 11V16" stroke="#48538B" stroke-width="2" stroke-miterlimit="10"/>
<path d="M16.3334 9H11.3334" stroke="#48538B" stroke-width="2" stroke-miterlimit="10"/>
<path d="M7.33337 9H2.33337" stroke="#48538B" stroke-width="2" stroke-miterlimit="10"/>
</g>
<defs>
<clipPath id="clip0_4162_6928">
<rect width="60" height="60" fill="white" transform="translate(0.333374)"/>
</clipPath>
</defs>
</svg>
