<svg width="60" height="61" viewBox="0 0 60 61" fill="none" xmlns="http://www.w3.org/2000/svg">
<g clip-path="url(#clip0_4412_9351)">
<path d="M11.995 19.2754H9C7.343 19.2754 6 20.6184 6 22.2754V47.2754" stroke="#48538B" stroke-width="2" stroke-miterlimit="10"/>
<path d="M54 47.2754V22.2754C54 20.6184 52.657 19.2754 51 19.2754H48" stroke="#48538B" stroke-width="2" stroke-miterlimit="10"/>
<path d="M57 47.2754H3C2.448 47.2754 2 47.7234 2 48.2754V50.2754C2 53.0364 4.239 55.2754 7 55.2754H53C55.761 55.2754 58 53.0364 58 50.2754V48.2754C58 47.7234 57.552 47.2754 57 47.2754Z" stroke="#48538B" stroke-width="2" stroke-miterlimit="10"/>
<path d="M25 51.2754H35" stroke="#48538B" stroke-width="2" stroke-miterlimit="10"/>
<path d="M13 59.2754H47" stroke="#48538B" stroke-width="2" stroke-miterlimit="10"/>
<path d="M11 59.2754H7" stroke="#48538B" stroke-width="2" stroke-miterlimit="10"/>
<path d="M13 11.2754C23.462 11.2754 21.859 24.2754 46 24.2754" stroke="#48538B" stroke-width="2" stroke-miterlimit="10"/>
<path d="M35.1309 17.8054C35.9469 18.2354 36.8189 18.6524 37.7559 19.0514" stroke="#48538B" stroke-width="2" stroke-miterlimit="10"/>
<path d="M26.506 25.5694L23.499 29.6514C23.184 30.0464 22.706 30.2754 22.201 30.2754H19C18.502 30.2754 18.072 29.9034 18 29.4104C16.229 17.3644 13 19.3754 13 11.2754C13 9.04639 13.679 7.19939 14.412 5.14939C14.601 4.62139 15.084 4.27539 15.638 4.27539C15.763 4.27539 15.891 4.29539 16.017 4.33139C22.44 6.18939 26.061 12.1924 32.875 16.5004" stroke="#48538B" stroke-width="2" stroke-miterlimit="10"/>
<path d="M28.2588 28.5694C28.7878 29.5574 29.7588 30.2754 30.8238 30.2754H42.6098C43.6288 30.2754 44.5728 29.7164 45.0328 28.8074C45.5898 27.7064 45.9998 26.1964 45.9998 24.2754C46.0098 22.7054 45.8118 20.8584 45.2288 19.7754C42.7048 15.0884 38.4398 13.5074 33.9998 11.4204C33.7968 11.3254 33.5808 11.2754 33.3678 11.2754C32.9198 11.2754 32.4388 11.4874 32.1518 11.8924L30.2868 14.6874" stroke="#48538B" stroke-width="2" stroke-miterlimit="10"/>
<path d="M22.077 37.2754H11.923C11.396 37.2754 11 37.6924 11 38.1984C11 38.2944 11.016 38.3924 11.048 38.4894L12.433 42.6444C12.559 43.0214 12.911 43.2754 13.308 43.2754H20.692C21.089 43.2754 21.442 43.0214 21.567 42.6444L22.952 38.4894C22.983 38.3954 23 38.3014 23 38.2094C23 37.6954 22.607 37.2754 22.077 37.2754Z" stroke="#48538B" stroke-width="2" stroke-miterlimit="10"/>
<path d="M15.3966 33.5464L13.2236 37.2754" stroke="#48538B" stroke-width="2" stroke-miterlimit="10"/>
<path d="M18.6025 33.5464L20.7755 37.2754" stroke="#48538B" stroke-width="2" stroke-miterlimit="10"/>
<path d="M26 43.2754H41" stroke="#48538B" stroke-width="2" stroke-miterlimit="10"/>
<path d="M43 43.2754H45" stroke="#48538B" stroke-width="2" stroke-miterlimit="10"/>
<path d="M26 39.2754H37" stroke="#48538B" stroke-width="2" stroke-miterlimit="10"/>
<path d="M30 5.27539V1.27539" stroke="#48538B" stroke-width="2" stroke-miterlimit="10"/>
<path d="M34.7959 6.27538L36.4379 2.51038" stroke="#48538B" stroke-width="2" stroke-miterlimit="10"/>
<path d="M39.4844 8.79133L42.5084 5.76733" stroke="#48538B" stroke-width="2" stroke-miterlimit="10"/>
</g>
<defs>
<clipPath id="clip0_4412_9351">
<rect width="60" height="60" fill="white" transform="translate(0 0.275391)"/>
</clipPath>
</defs>
</svg>
