<svg width="60" height="61" viewBox="0 0 60 61" fill="none" xmlns="http://www.w3.org/2000/svg">
<path d="M8.99707 47.6694C10.2221 45.6344 12.4531 44.2754 15.0001 44.2754C18.8661 44.2754 22.0001 47.4094 22.0001 51.2754C22.0001 55.1414 18.8661 58.2754 15.0001 58.2754C12.4511 58.2754 10.2211 56.9144 8.99707 54.8784" stroke="#48538B" stroke-width="2" stroke-miterlimit="10"/>
<path d="M15 52.2754C15.5523 52.2754 16 51.8277 16 51.2754C16 50.7231 15.5523 50.2754 15 50.2754C14.4477 50.2754 14 50.7231 14 51.2754C14 51.8277 14.4477 52.2754 15 52.2754Z" stroke="#48538B" stroke-width="2" stroke-miterlimit="10"/>
<path d="M20.9991 47.6694C22.2251 45.6354 24.4531 44.2754 27.0001 44.2754C30.8661 44.2754 34.0001 47.4094 34.0001 51.2754C34.0001 55.1414 30.8661 58.2754 27.0001 58.2754C24.4511 58.2754 22.2211 56.9144 20.9971 54.8784" stroke="#48538B" stroke-width="2" stroke-miterlimit="10"/>
<path d="M27 52.2754C27.5523 52.2754 28 51.8277 28 51.2754C28 50.7231 27.5523 50.2754 27 50.2754C26.4477 50.2754 26 50.7231 26 51.2754C26 51.8277 26.4477 52.2754 27 52.2754Z" stroke="#48538B" stroke-width="2" stroke-miterlimit="10"/>
<path d="M51 46.2754H40C38.896 46.2754 38 45.3794 38 44.2754V42.2754C38 41.1714 38.896 40.2754 40 40.2754H51" stroke="#48538B" stroke-width="2" stroke-miterlimit="10"/>
<path d="M40 52.2754C38.896 52.2754 38 51.3794 38 50.2754V48.2754C38 47.1714 38.896 46.2754 40 46.2754" stroke="#48538B" stroke-width="2" stroke-miterlimit="10"/>
<path d="M51 58.2754H40C38.896 58.2754 38 57.3794 38 56.2754V54.2754C38 53.1714 38.896 52.2754 40 52.2754H51" stroke="#48538B" stroke-width="2" stroke-miterlimit="10"/>
<path d="M22.002 25.2754H49C50.104 25.2754 51 26.1714 51 27.2754V58.2754" stroke="#48538B" stroke-width="2" stroke-miterlimit="10"/>
<path d="M18 25.2754H19.998" stroke="#48538B" stroke-width="2" stroke-miterlimit="10"/>
<path d="M5 52.2754V58.2754" stroke="#48538B" stroke-width="2" stroke-miterlimit="10"/>
<path d="M5 48.2754V50.2754" stroke="#48538B" stroke-width="2" stroke-miterlimit="10"/>
<path d="M55 58.2754V23.2754C55 22.1714 54.104 21.2754 53 21.2754H7C5.896 21.2754 5 22.1714 5 23.2754V46.2754" stroke="#48538B" stroke-width="2" stroke-miterlimit="10"/>
<path d="M0 58.2754H9V27.2754C9 26.1714 9.896 25.2754 11 25.2754H15.997" stroke="#48538B" stroke-width="2" stroke-miterlimit="10"/>
<path d="M60 58.2754H27" stroke="#48538B" stroke-width="2" stroke-miterlimit="10"/>
<path d="M33 29.2754H9" stroke="#48538B" stroke-width="2" stroke-miterlimit="10"/>
<path d="M36.996 29.2754H35" stroke="#48538B" stroke-width="2" stroke-miterlimit="10"/>
<path d="M51 29.2754H39" stroke="#48538B" stroke-width="2" stroke-miterlimit="10"/>
<path d="M51 34.2754H9" stroke="#48538B" stroke-width="2" stroke-miterlimit="10"/>
<path d="M6.13867 21.4694L29.1387 10.4694C29.3987 10.3454 29.6907 10.2754 29.9997 10.2754C30.3107 10.2754 30.6037 10.3454 30.8667 10.4724L30.8607 10.4694L53.8607 21.4694" stroke="#48538B" stroke-width="2" stroke-miterlimit="10"/>
<path d="M5 6.27539V2.27539" stroke="#48538B" stroke-width="2" stroke-miterlimit="10"/>
<path d="M5 14.2754V10.2754" stroke="#48538B" stroke-width="2" stroke-miterlimit="10"/>
<path d="M7 8.27539H10" stroke="#48538B" stroke-width="2" stroke-miterlimit="10"/>
<path d="M3 8.27539H0" stroke="#48538B" stroke-width="2" stroke-miterlimit="10"/>
<path d="M55 9.27539V5.27539" stroke="#48538B" stroke-width="2" stroke-miterlimit="10"/>
<path d="M55 17.2754V13.2754" stroke="#48538B" stroke-width="2" stroke-miterlimit="10"/>
<path d="M57 11.2754H60" stroke="#48538B" stroke-width="2" stroke-miterlimit="10"/>
<path d="M53 11.2754H50" stroke="#48538B" stroke-width="2" stroke-miterlimit="10"/>
</svg>
