<svg width="60" height="61" viewBox="0 0 60 61" fill="none" xmlns="http://www.w3.org/2000/svg">
<path d="M22.9991 13.2954V18.2754C22.9991 21.6764 20.0841 24.2874 16.4951 24.2874C12.9061 24.2874 9.99612 21.5304 9.99612 18.1284L9.99512 13.9414" stroke="#48538B" stroke-width="2" stroke-miterlimit="10"/>
<path d="M12.995 14.2754H10.999C9.14002 14.0004 7.99902 12.1124 7.99902 10.2754C7.99902 9.27539 8.22902 8.64139 8.99902 5.27539C10.325 6.36839 11.732 7.27539 13.999 7.27539C15.656 7.27539 15.973 6.27539 18.999 6.27539C20.919 6.27539 22.997 8.16839 22.997 9.98739L22.998 14.2754" stroke="#48538B" stroke-width="2" stroke-miterlimit="10"/>
<path d="M8.99902 48.4274L9.00002 37.2764C9.00002 36.7234 9.44702 36.2754 10 36.2754H22.994C23.546 36.2754 23.999 36.7234 23.999 37.2754V48.4274" stroke="#48538B" stroke-width="2" stroke-miterlimit="10"/>
<path d="M12.999 36.2754V41.2754H19.999V36.2754" stroke="#48538B" stroke-width="2" stroke-miterlimit="10"/>
<path d="M7.99902 52.5063V58.2753" stroke="#48538B" stroke-width="2" stroke-miterlimit="10"/>
<path d="M25.9593 50.3564C26.2293 51.7024 25.1363 52.8984 23.1403 53.2114C21.1443 53.5244 19.3063 52.6874 19.0363 51.3404C18.7663 49.9934 20.1653 48.6484 22.1623 48.3354C24.1573 48.0224 25.6883 49.0094 25.9593 50.3564Z" stroke="#48538B" stroke-width="2" stroke-miterlimit="10"/>
<path d="M24.999 52.5115V58.2755" stroke="#48538B" stroke-width="2" stroke-miterlimit="10"/>
<path d="M55.995 25.2754V41.2754H41.999V25.2754" stroke="#48538B" stroke-width="2" stroke-miterlimit="10"/>
<path d="M41.9993 31.2754H27.0723" stroke="#48538B" stroke-width="2" stroke-miterlimit="10"/>
<path d="M29.999 41.2834L41.999 41.2754" stroke="#48538B" stroke-width="2" stroke-miterlimit="10"/>
<path d="M21.498 28.9124L30.987 17.2754H46.268" stroke="#48538B" stroke-width="2" stroke-miterlimit="10"/>
<path d="M46.999 32.2754V29.2754" stroke="#48538B" stroke-width="2" stroke-miterlimit="10"/>
<path d="M50.999 29.2754V32.2754" stroke="#48538B" stroke-width="2" stroke-miterlimit="10"/>
<path d="M46.999 34.2754V37.2754" stroke="#48538B" stroke-width="2" stroke-miterlimit="10"/>
<path d="M50.999 34.2754V37.2754" stroke="#48538B" stroke-width="2" stroke-miterlimit="10"/>
<path d="M44 45.2754H53.995" stroke="#48538B" stroke-width="2" stroke-miterlimit="10"/>
<path d="M41.995 45.2754H40" stroke="#48538B" stroke-width="2" stroke-miterlimit="10"/>
<path d="M48.9995 15.2754C49.5795 15.2754 50.1325 15.5194 50.5225 15.9484L57.7905 23.9324C58.2595 24.4484 57.8925 25.2754 57.1955 25.2754H40.8075C40.1075 25.2754 39.7405 24.4464 40.2115 23.9294L47.4755 15.9484C47.8665 15.5194 48.4195 15.2754 48.9995 15.2754Z" stroke="#48538B" stroke-width="2" stroke-miterlimit="10"/>
<path d="M13.991 23.8135C13.991 27.8135 12.716 28.7795 7.99902 30.2755C3.13902 31.8175 2.99902 36.2755 2.99902 38.2755V44.2755C2.99902 49.2755 7.86402 52.4025 7.86402 52.4025" stroke="#48538B" stroke-width="2" stroke-miterlimit="10"/>
<path d="M19.0078 23.8323C19.0078 27.8323 20.2818 28.7783 24.9988 30.2753C29.8588 31.8173 29.9988 36.2753 29.9988 38.2753V44.2753C29.9988 49.2753 25.1338 52.4023 25.1338 52.4023" stroke="#48538B" stroke-width="2" stroke-miterlimit="10"/>
<path d="M13.9697 51.2754H19.0167" stroke="#48538B" stroke-width="2" stroke-miterlimit="10"/>
<path d="M7.04359 50.3534C6.77359 51.6984 7.86359 52.8934 9.85559 53.2054C11.8476 53.5174 13.6806 52.6804 13.9506 51.3344C14.2206 49.9894 12.8246 48.6454 10.8336 48.3324C8.84259 48.0194 7.31359 49.0084 7.04359 50.3534Z" stroke="#48538B" stroke-width="2" stroke-miterlimit="10"/>
</svg>
