<svg width="60" height="61" viewBox="0 0 60 61" fill="none" xmlns="http://www.w3.org/2000/svg">
<path d="M49.5625 11.0264L45.5505 6.02639C45.1845 5.57239 44.6285 5.27539 43.9995 5.27539H6.99952C6.37052 5.27539 5.81452 5.57239 5.44852 6.02639L1.43652 11.0264" stroke="#48538B" stroke-width="2" stroke-miterlimit="10"/>
<path d="M31 33.2754H5.5C3.015 33.2754 1 30.8134 1 27.7754V12.2754C1 11.1704 1.895 10.2754 3 10.2754H48C49.105 10.2754 50 11.1704 50 12.2754V27.7754C50 30.5254 48.349 32.8034 46.192 33.2104" stroke="#48538B" stroke-width="2" stroke-miterlimit="10"/>
<path d="M1 23.2754H5" stroke="#48538B" stroke-width="2" stroke-miterlimit="10"/>
<path d="M7 23.2754H9" stroke="#48538B" stroke-width="2" stroke-miterlimit="10"/>
<path d="M11 23.2754H13" stroke="#48538B" stroke-width="2" stroke-miterlimit="10"/>
<path d="M15 23.2754H17" stroke="#48538B" stroke-width="2" stroke-miterlimit="10"/>
<path d="M33 23.2754H50" stroke="#48538B" stroke-width="2" stroke-miterlimit="10"/>
<path d="M24.425 28.2754H9C7.895 28.2754 7 29.1704 7 30.2754V33.2754" stroke="#48538B" stroke-width="2" stroke-miterlimit="10"/>
<path d="M44 31.3254V30.2754C44 29.1704 43.105 28.2754 42 28.2754H32" stroke="#48538B" stroke-width="2" stroke-miterlimit="10"/>
<path d="M36.458 46.7604C36.167 46.3224 36 45.8154 36 45.2754C36 43.6184 37.567 42.2754 39.5 42.2754C40.803 42.2754 41.939 42.8854 42.542 43.7904L46.539 49.7864C46.832 50.2254 47 50.7334 47 51.2754C47 52.9324 45.433 54.2754 43.5 54.2754C42.198 54.2754 41.063 53.6664 40.46 52.7624L36.458 46.7604Z" stroke="#48538B" stroke-width="2" stroke-miterlimit="10"/>
<path d="M59.9996 56.2754H49.0586C47.8006 56.2754 46.5566 56.0114 45.4066 55.5014L41.8916 53.9414" stroke="#48538B" stroke-width="2" stroke-miterlimit="10"/>
<path d="M41.055 34.3304C41.024 34.1854 41 33.8634 41 33.7754C41 32.3944 42.119 31.2754 43.5 31.2754C44.32 31.2754 45.047 31.6704 45.503 32.2794C45.503 32.2794 47.05 34.3844 47.592 35.0654C48.32 35.9824 49.404 36.8054 54.404 40.1904C55.457 40.9034 56.437 41.7124 57.336 42.6114L58.588 43.8634" stroke="#48538B" stroke-width="2" stroke-miterlimit="10"/>
<path d="M37.524 42.7994L34.707 39.9824C34.254 39.5294 34 38.9154 34 38.2754C34 37.6354 34.254 37.0214 34.707 36.5684L37.293 33.9824C37.746 33.5294 38.36 33.2754 39 33.2754C39.64 33.2754 40.254 33.5294 40.707 33.9824L51.757 45.0324C52.553 45.8284 53 46.9074 53 48.0324C53 50.3764 51.101 52.2754 48.757 52.2754C48.12 52.2754 47.497 52.1324 46.932 51.8634" stroke="#48538B" stroke-width="2" stroke-miterlimit="10"/>
<path d="M29.707 25.9824L37.506 33.7814" stroke="#48538B" stroke-width="2" stroke-miterlimit="10"/>
<path d="M34.514 36.7894L26.707 28.9824" stroke="#48538B" stroke-width="2" stroke-miterlimit="10"/>
<path d="M29.78 24.6764L25.762 19.6504C25.579 19.4264 25.312 19.2754 25 19.2754C24.724 19.2754 24.474 19.3874 24.293 19.5684L20.293 23.5684C20.112 23.7494 20 23.9994 20 24.2754C20 24.5874 20.151 24.8544 20.375 25.0374L25.401 29.0554C25.569 29.1854 25.771 29.2754 26 29.2754C26.276 29.2754 26.526 29.1634 26.707 28.9824L29.707 25.9824C29.888 25.8014 30 25.5514 30 25.2754C30 25.0464 29.91 24.8454 29.78 24.6764Z" stroke="#48538B" stroke-width="2" stroke-miterlimit="10"/>
<path d="M32 41.2754H30V43.2754H32V41.2754Z" fill="#48538B"/>
<path d="M20 36.2754H18V38.2754H20V36.2754Z" fill="#48538B"/>
<path d="M22 41.2754H20V43.2754H22V41.2754Z" fill="#48538B"/>
<path d="M27 43.2754H25V45.2754H27V43.2754Z" fill="#48538B"/>
<path d="M8 38.2754H6V40.2754H8V38.2754Z" fill="#48538B"/>
<path d="M12 40.2754H10V42.2754H12V40.2754Z" fill="#48538B"/>
<path d="M2 44.2754H0V46.2754H2V44.2754Z" fill="#48538B"/>
<path d="M14 44.2754H12V46.2754H14V44.2754Z" fill="#48538B"/>
<path d="M8 50.2754H6V52.2754H8V50.2754Z" fill="#48538B"/>
<path d="M4 48.2754H2V50.2754H4V48.2754Z" fill="#48538B"/>
<path d="M12 48.2754H10V50.2754H12V48.2754Z" fill="#48538B"/>
<path d="M4 40.2754H2V42.2754H4V40.2754Z" fill="#48538B"/>
<path d="M27 49.2754H25V51.2754H27V49.2754Z" fill="#48538B"/>
<path d="M24 52.2754H22V54.2754H24V52.2754Z" fill="#48538B"/>
<path d="M30 52.2754H28V54.2754H30V52.2754Z" fill="#48538B"/>
<path d="M27 55.2754H25V57.2754H27V55.2754Z" fill="#48538B"/>
<path d="M51 2.27539H49V4.27539H51V2.27539Z" fill="#48538B"/>
<path d="M55 4.27539H53V6.27539H55V4.27539Z" fill="#48538B"/>
<path d="M57 8.27539H55V10.2754H57V8.27539Z" fill="#48538B"/>
<path d="M55 12.2754H53V14.2754H55V12.2754Z" fill="#48538B"/>
</svg>
