<svg width="60" height="61" viewBox="0 0 60 61" fill="none" xmlns="http://www.w3.org/2000/svg">
<path d="M42 56.2754H6C4.895 56.2754 4 55.3804 4 54.2754V31.2754C4 30.1704 4.895 29.2754 6 29.2754H42C43.105 29.2754 44 30.1704 44 31.2754V54.2754C44 55.3804 43.105 56.2754 42 56.2754Z" stroke="#48538B" stroke-width="2" stroke-miterlimit="10"/>
<path d="M17 29.2754V26.2754C17 25.1704 17.895 24.2754 19 24.2754H29C30.105 24.2754 31 25.1704 31 26.2754V29.2754" stroke="#48538B" stroke-width="2" stroke-miterlimit="10"/>
<path d="M26 44.2754C26.466 44.2754 26.858 43.9564 26.969 43.5254L27.971 39.5194C27.99 39.4414 28 39.3594 28 39.2754C28 38.7234 27.552 38.2754 27 38.2754H21C20.448 38.2754 20 38.7234 20 39.2754C20 39.3594 20.01 39.4414 20.03 39.5194L21.032 43.5254C21.142 43.9564 21.534 44.2754 22 44.2754H26Z" stroke="#48538B" stroke-width="2" stroke-miterlimit="10"/>
<path d="M20.478 41.2754H17.732C14.691 41.2754 11.763 40.1204 9.541 38.0454L4 32.8694" stroke="#48538B" stroke-width="2" stroke-miterlimit="10"/>
<path d="M27.5225 41.2754H30.2685C33.3095 41.2754 36.2375 40.1204 38.4595 38.0454L44.0005 32.8694" stroke="#48538B" stroke-width="2" stroke-miterlimit="10"/>
<path d="M9 50.2754H7V52.2754H9V50.2754Z" fill="#48538B"/>
<path d="M9 46.2754H7V48.2754H9V46.2754Z" fill="#48538B"/>
<path d="M9 42.2754H7V44.2754H9V42.2754Z" fill="#48538B"/>
<path d="M48 55.2754V52.2754" stroke="#48538B" stroke-width="2" stroke-miterlimit="10"/>
<path d="M48 50.2754V41.2754" stroke="#48538B" stroke-width="2" stroke-miterlimit="10"/>
<path d="M33 9.27539H14C13.448 9.27539 13 8.82739 13 8.27539V6.27539C13 5.72339 13.448 5.27539 14 5.27539H56C56.552 5.27539 57 5.72339 57 6.27539V8.27539C57 8.82739 56.552 9.27539 56 9.27539H50" stroke="#48538B" stroke-width="2" stroke-miterlimit="10"/>
<path d="M55 9.27539V36.2754C55 37.3804 54.105 38.2754 53 38.2754H47.002" stroke="#48538B" stroke-width="2" stroke-miterlimit="10"/>
<path d="M15 22.2754V9.27539" stroke="#48538B" stroke-width="2" stroke-miterlimit="10"/>
<path d="M48 9.27539H46" stroke="#48538B" stroke-width="2" stroke-miterlimit="10"/>
<path d="M44 9.27539H42" stroke="#48538B" stroke-width="2" stroke-miterlimit="10"/>
<path d="M10 26.2754V18.2754" stroke="#48538B" stroke-width="2" stroke-miterlimit="10"/>
<path d="M10 16.2754V13.2754" stroke="#48538B" stroke-width="2" stroke-miterlimit="10"/>
<path d="M18 13.2754H28" stroke="#48538B" stroke-width="2" stroke-miterlimit="10"/>
<path d="M18 17.2754H30" stroke="#48538B" stroke-width="2" stroke-miterlimit="10"/>
<path d="M32 17.2754H35" stroke="#48538B" stroke-width="2" stroke-miterlimit="10"/>
<path d="M45 25.2754C48.3137 25.2754 51 22.5891 51 19.2754C51 15.9617 48.3137 13.2754 45 13.2754C41.6863 13.2754 39 15.9617 39 19.2754C39 22.5891 41.6863 25.2754 45 25.2754Z" stroke="#48538B" stroke-width="2" stroke-miterlimit="10"/>
<path d="M45 13.2754V19.2754L49.242 23.5174" stroke="#48538B" stroke-width="2" stroke-miterlimit="10"/>
</svg>
