<svg width="29" height="29" viewBox="0 0 29 29" fill="none" xmlns="http://www.w3.org/2000/svg">
<path d="M6.04188 11.9148C8.35753 16.9583 12.478 20.9681 17.6007 23.1419L18.4219 23.5078C20.3006 24.3449 22.5092 23.7089 23.6551 22.0009L24.7282 20.4015C25.0771 19.8814 24.9709 19.181 24.4835 18.7878L20.8442 15.8518C20.3096 15.4206 19.5236 15.521 19.1146 16.0728L17.9888 17.592C15.0999 16.167 12.7545 13.8215 11.3294 10.9326L12.8486 9.80679C13.4004 9.39787 13.5009 8.61183 13.0696 8.07729L10.1335 4.43785C9.74039 3.95056 9.04016 3.84426 8.52013 4.19295L6.90962 5.27283C5.19095 6.42523 4.55853 8.65201 5.41492 10.5357L6.04094 11.9128L6.04188 11.9148Z" fill="#E6EDFE"/>
</svg>
