<svg width="19" height="18" viewBox="0 0 19 18" fill="none" xmlns="http://www.w3.org/2000/svg">
<path fill-rule="evenodd" clip-rule="evenodd" d="M2.84029 6.85641C4.6276 10.7483 7.80809 13.8425 11.7619 15.5191L11.7743 15.5244L12.5382 15.8648C13.5108 16.2982 14.654 15.9904 15.2776 15.1273L16.552 13.3636C16.6298 13.2558 16.6098 13.106 16.5063 13.0226L14.2816 11.2278C14.171 11.1385 14.0084 11.1593 13.9237 11.2735L13.0579 12.4419C12.8476 12.7256 12.4678 12.8242 12.1461 12.6786C9.18968 11.3407 6.81397 8.96497 5.47604 6.00857C5.33043 5.68681 5.42902 5.30705 5.71278 5.09677L6.88115 4.23091C6.99532 4.14631 7.0161 3.98368 6.92688 3.87308L5.13184 1.64804C5.04841 1.54462 4.89866 1.52454 4.79093 1.60231L3.01764 2.88247C2.14885 3.50966 1.84289 4.6625 2.28635 5.63795L2.83969 6.85511C2.83989 6.85555 2.84009 6.85598 2.84029 6.85641ZM11.1699 16.8974C6.87392 15.0738 3.41856 11.7108 1.47651 7.48101L1.47534 7.47846L0.920841 6.25874C0.181741 4.63299 0.691669 2.71158 2.13965 1.66627L3.91294 0.386111C4.66706 -0.158295 5.71529 -0.0176905 6.29929 0.706203L8.09433 2.93125C8.71889 3.70542 8.57342 4.84381 7.77426 5.43605L7.10476 5.93221C8.23567 8.1266 10.0281 9.91898 12.2224 11.0499L12.7186 10.3804C13.3108 9.58123 14.4492 9.43576 15.2234 10.0603L17.4482 11.8551C18.1723 12.4393 18.3127 13.4879 17.7678 14.242L16.4935 16.0058C15.4541 17.4443 13.5487 17.9572 11.9277 17.235L11.1699 16.8974Z" fill="#E6EDFE"/>
</svg>
