<svg width="32" height="32" viewBox="0 0 32 32" fill="none" xmlns="http://www.w3.org/2000/svg">
<g clip-path="url(#clip0_132:494)">
<path d="M23.4279 6.85724C23.5408 6.85722 23.6511 6.89062 23.745 6.95324L24.5708 7.50353V4.57153H22.2851V7.50353L23.1108 6.95324C23.2047 6.89062 23.315 6.85722 23.4279 6.85724Z" fill="#B1BEDA"/>
<path d="M11.9996 6.85714C13.8931 6.85714 15.4282 5.32212 15.4282 3.42857C15.4282 1.53502 13.8931 0 11.9996 0C10.106 0 8.57101 1.53502 8.57101 3.42857C8.57101 5.32212 10.106 6.85714 11.9996 6.85714Z" fill="#B1BEDA"/>
<path d="M28 13.7144V4.57153H25.7143V8.57153C25.7143 8.78233 25.5983 8.97602 25.4124 9.07546C25.2266 9.17491 25.001 9.16395 24.8257 9.04696L23.4285 8.11439L22.0314 9.04582C21.8562 9.1627 21.631 9.17375 21.4452 9.07459C21.2594 8.97543 21.1432 8.78212 21.1428 8.57153V4.57153H18.8571V13.7144H28Z" fill="#B1BEDA"/>
<path d="M4.44178 31.7603C4.94573 32.1272 5.64817 32.0385 6.04521 31.558L10.0452 26.4151C10.1409 26.2897 10.2105 26.1463 10.2498 25.9934L11.1069 22.5569L9.26407 20.5083L8.1195 25.0854C8.10046 25.1626 8.0652 25.2349 8.01607 25.2974L4.23892 30.1546C4.05302 30.3941 3.96995 30.6978 4.008 30.9986C4.04605 31.2994 4.20209 31.5728 4.44178 31.7586V31.7603Z" fill="#B1BEDA"/>
<path d="M13.0194 10.7234C12.9814 10.6458 12.9327 10.5739 12.8748 10.5097C12.8526 10.4791 12.8335 10.4463 12.8177 10.412C12.8011 10.3889 12.7866 10.3644 12.7742 10.3389C12.7529 10.2819 12.7411 10.2219 12.7394 10.1611C12.7394 10.1509 12.7331 10.1417 12.7331 10.1314V10.1251L12.9165 7.90743C12.157 8.06282 11.3704 8.02251 10.6308 7.79028L10.3451 11.2411L9.72794 18.6217L9.71651 18.7589C9.69075 19.0747 9.79663 19.3872 10.0091 19.6223L14.7091 24.8417C14.8037 24.9468 14.8561 25.0832 14.856 25.2246V30.8571C14.856 31.4883 15.3676 32 15.9988 32C16.63 32 17.1417 31.4883 17.1417 30.8571V24.5714C17.1433 24.2893 17.0394 24.0168 16.8502 23.8074L12.2382 18.6857L12.1965 18.6377C12.0959 18.5213 12.0465 18.3693 12.0594 18.216L12.3211 15.0806L11.5428 14.06C11.3527 13.8075 11.4032 13.4487 11.6557 13.2586C11.9081 13.0684 12.2669 13.119 12.4571 13.3714L13.3582 14.556L14.9062 16.4C14.9354 16.4349 14.9601 16.4733 14.98 16.5143C15.1726 16.9008 15.568 17.1445 16 17.1429H24C24.6312 17.1429 25.1428 16.6312 25.1428 16C25.1428 15.3688 24.6312 14.8571 24 14.8571H17.0571C16.8976 14.8573 16.7454 14.7908 16.6371 14.6737L13.1114 10.8571C13.0749 10.8169 13.0439 10.7719 13.0194 10.7234Z" fill="#B1BEDA"/>
</g>
<defs>
<clipPath id="clip0_132:494">
<rect width="32" height="32" fill="white"/>
</clipPath>
</defs>
</svg>
