<svg width="38" height="28" viewBox="0 0 38 28" fill="none" xmlns="http://www.w3.org/2000/svg">
<path d="M5.32087 20.7958C5.60257 20.7958 5.83306 20.5653 5.83306 20.2836V16.1776C5.83306 15.8958 6.06355 15.6654 6.34525 15.6654H11.0574C11.3391 15.6654 11.5696 15.4349 11.5696 15.1532V11.0471C11.5696 10.7654 11.8001 10.5349 12.0818 10.5349H16.794C17.0757 10.5349 17.3062 10.3044 17.3062 10.0227V5.91679C17.3062 5.63509 17.5367 5.4046 17.8184 5.4046H22.5305C22.8123 5.4046 23.0427 5.17411 23.0427 4.89241V0.786363C23.0427 0.504657 23.2732 0.27417 23.5549 0.27417H37.4878C37.7695 0.27417 38 0.504657 38 0.786363V6.32655C38 6.60825 37.7695 6.83874 37.4878 6.83874H32.7756C32.4939 6.83874 32.2634 7.06923 32.2634 7.35093V11.4569C32.2634 11.7386 32.033 11.9691 31.7512 11.9691H27.0391C26.7574 11.9691 26.5269 12.1996 26.5269 12.4813V16.5873C26.5269 16.869 26.2964 17.0995 26.0147 17.0995H21.3025C21.0208 17.0995 20.7903 17.33 20.7903 17.6117V21.7177C20.7903 21.9994 20.5598 22.2299 20.2781 22.2299H15.566C15.2842 22.2299 15.0538 22.4604 15.0538 22.7421V26.8481C15.0538 27.1298 14.8233 27.3603 14.5416 27.3603H0.608692C0.326988 27.3603 0.0965004 27.1298 0.0965004 26.8481V21.308C0.0965004 21.0263 0.326988 20.7958 0.608692 20.7958H5.32087Z" fill="#B1BEDA"/>
</svg>
