<svg width="24" height="24" viewBox="0 0 24 24" fill="none" xmlns="http://www.w3.org/2000/svg">
<path d="M6.33336 1.33325C6.33336 0.780967 5.88565 0.333252 5.33336 0.333252C4.78108 0.333252 4.33336 0.780967 4.33336 1.33325V3.75515C2.3426 4.0366 0.769866 5.61119 0.50363 7.6197L0.388228 8.49031C0.368663 8.63791 0.349954 8.78559 0.332102 8.93336C0.284748 9.32531 0.593554 9.66658 0.988363 9.66658H23.0116C23.4064 9.66658 23.7152 9.32531 23.6679 8.93335C23.65 8.78559 23.6313 8.63791 23.6118 8.4903L23.4964 7.6197C23.2301 5.61121 21.6574 4.03664 19.6667 3.75517V1.33325C19.6667 0.780967 19.219 0.333252 18.6667 0.333252C18.1144 0.333252 17.6667 0.780967 17.6667 1.33325V3.55676C13.8964 3.22099 10.1037 3.22099 6.33336 3.55676V1.33325Z" fill="#B1BEDA"/>
<path d="M23.9261 12.3007C23.9144 11.9454 23.6209 11.6666 23.2655 11.6666H0.734519C0.37909 11.6666 0.0855359 11.9454 0.0738631 12.3007C-0.00533499 14.7109 0.141068 17.126 0.512712 19.5144C0.794059 21.3225 2.26294 22.7112 4.08393 22.8908L5.6746 23.0476C9.88132 23.4625 14.1187 23.4625 18.3254 23.0476L19.9161 22.8908C21.737 22.7112 23.2059 21.3224 23.4873 19.5144C23.8589 17.126 24.0053 14.7109 23.9261 12.3007Z" fill="#B1BEDA"/>
</svg>
