<svg width="33" height="32" fill="none" xmlns="http://www.w3.org/2000/svg"><path d="M3.707 6.178l-3.39 9.898a6.062 6.062 0 001.2 5.985l6.954 7.86a6.187 6.187 0 005.828 1.962l10.344-2.038a6.138 6.138 0 004.628-4.022l3.391-9.899a6.062 6.062 0 00-1.2-5.985l-6.953-7.86A6.187 6.187 0 0018.68.117L8.336 2.155a6.14 6.14 0 00-4.63 4.023z" fill="#000"/><path d="M24.995 13.14l-7.012-.15c.075-.629.48-3.066.527-3.608.16-1.97-.09-3.473-2.396-3.75-.845 5.304-4.06 8.194-5.837 8.853H7.776v9.121h3.932l8.974 1.45c3.24-2.788 5.11-6.177 4.314-11.916z" fill="#fff"/></svg>