<svg width="165" height="30" viewBox="0 0 165 30" fill="none" xmlns="http://www.w3.org/2000/svg">
<path fill-rule="evenodd" clip-rule="evenodd" d="M69.1726 11.8844C68.4319 10.5695 67.4198 9.545 66.1365 8.81079C64.8531 8.07539 63.422 7.70828 61.8432 7.70948C60.2644 7.71067 58.8333 8.07777 57.5498 8.81079C56.2662 9.545 55.2536 10.5699 54.5123 11.8856C53.7709 13.2012 53.4003 14.6881 53.4003 16.3462C53.4005 18.0031 53.7711 19.4936 54.5123 20.8175C55.2535 22.1415 56.266 23.17 57.5498 23.903C58.8335 24.6372 60.2646 25.0043 61.8432 25.0043C63.4218 25.0043 64.8529 24.6372 66.1365 23.903C67.419 23.1692 68.4311 22.1407 69.1726 20.8175C69.9142 19.4944 70.285 18.0035 70.285 16.345C70.2842 14.6861 69.9134 13.1992 69.1726 11.8844ZM57.4781 13.4149C57.9006 12.5779 58.4866 11.9362 59.2361 11.4897C59.9857 11.043 60.8548 10.8198 61.8432 10.82C62.8316 10.8202 63.7007 11.0434 64.4503 11.4897C65.1998 11.9358 65.7858 12.5775 66.2083 13.4149C66.6308 14.2523 66.842 15.229 66.842 16.345C66.8422 17.4606 66.631 18.4372 66.2083 19.2748C65.7856 20.1124 65.1996 20.7542 64.4503 21.2003C63.7009 21.6468 62.8318 21.87 61.8432 21.87C60.8546 21.87 59.9855 21.6468 59.2361 21.2003C58.4866 20.7536 57.9006 20.1118 57.4781 19.2748C57.0556 18.4378 56.8444 17.4612 56.8444 16.345C56.8444 15.2286 57.0556 14.2519 57.4781 13.4149ZM47.0504 23.7716C48.3815 23.063 49.398 22.0708 50.0999 20.7951C50.8019 19.5195 51.153 18.045 51.153 16.3714C51.153 14.6805 50.8022 13.2016 50.1008 11.9348C49.3995 10.6682 48.383 9.68765 47.0513 8.99313C45.7196 8.2986 44.137 7.95134 42.3034 7.95134H36.3V24.836H42.3025C44.1367 24.835 45.7193 24.4802 47.0504 23.7716ZM47.732 16.3714C47.7316 18.0936 47.2334 19.433 46.2372 20.3897C45.2407 21.3455 43.8333 21.824 42.015 21.825H39.671V10.8945H42.015C43.8333 10.8939 45.2407 11.3722 46.2372 12.3292C47.2338 13.2863 47.732 14.6337 47.732 16.3714ZM91.2617 8.14231V24.8371H87.9132V13.189L83.632 24.8371H80.715L76.433 13.2369V24.8371H73.0602V8.14231H77.1503L82.2208 20.6994L87.1958 8.14231H91.2617ZM97.9348 24.8372V7.95134H94.5624V24.8372H97.9348ZM115.538 24.8372H112.166L104.608 13.3564V24.8372H101.235V7.95134H104.608L112.166 19.5265V7.95134H115.538V24.8372ZM122.355 21.4409H129.124L130.295 24.8371H133.859L127.664 8.14231H123.814L117.595 24.8371H121.159L122.355 21.4409ZM125.727 11.754L128.215 18.881L123.24 18.8816L125.727 11.754ZM150.219 24.8372H146.846L139.288 13.3564V24.8372H135.916V7.95134H139.288L146.846 19.5265V7.95134H150.219V24.8372ZM165 10.6301V7.95124L152.324 7.95095V10.6298H156.963V24.8374H160.336V10.6301H165Z" fill="url(#paint0_linear_562_4123)"/>
<path fill-rule="evenodd" clip-rule="evenodd" d="M29.4415 7.27703H7.28983L0 0H22.1642C26.1834 0 29.4415 3.25782 29.4415 7.27703ZM29.4415 11.0558V18.3331H18.3659L11.0757 11.0558H29.4415ZM29.4415 29.3894V22.1118H22.1514L29.4415 29.3894Z" fill="url(#paint1_linear_562_4123)"/>
<path fill-rule="evenodd" clip-rule="evenodd" d="M29.4415 7.27703H7.28983L0 0H22.1642C26.1834 0 29.4415 3.25782 29.4415 7.27703ZM29.4415 11.0558V18.3331H18.3659L11.0757 11.0558H29.4415ZM29.4415 29.3894V22.1118H22.1514L29.4415 29.3894Z" fill="url(#paint2_linear_562_4123)"/>
<defs>
<linearGradient id="paint0_linear_562_4123" x1="100.65" y1="7.70947" x2="100.65" y2="25.0043" gradientUnits="userSpaceOnUse">
<stop stop-color="#2644D0"/>
<stop offset="1" stop-color="#2E3AB0"/>
</linearGradient>
<linearGradient id="paint1_linear_562_4123" x1="14.7207" y1="0" x2="14.7207" y2="29.3894" gradientUnits="userSpaceOnUse">
<stop stop-color="#2249DE"/>
<stop offset="0.461458" stop-color="#3037A5"/>
<stop offset="1" stop-color="#3037A5"/>
</linearGradient>
<linearGradient id="paint2_linear_562_4123" x1="14.7207" y1="0" x2="14.7207" y2="29.3894" gradientUnits="userSpaceOnUse">
<stop stop-color="#2249DE"/>
<stop offset="1" stop-color="#3037A5"/>
</linearGradient>
</defs>
</svg>
