<svg width="31" height="31" viewBox="0 0 31 31" fill="none" xmlns="http://www.w3.org/2000/svg">
<path fill-rule="evenodd" clip-rule="evenodd" d="M7.47566 18.1085C7.5322 18.1275 7.58927 18.1411 7.64628 18.1494C7.70846 18.2955 7.78879 18.4845 7.88251 18.7055C8.11123 19.245 8.41941 19.9745 8.73752 20.7356C9.38625 22.2878 10.0406 23.8878 10.1852 24.3458C10.3641 24.912 10.5532 25.2969 10.7596 25.5597C10.8664 25.6956 10.9898 25.8142 11.1343 25.9041C11.207 25.9493 11.2838 25.9864 11.364 26.014C11.3676 26.0153 11.3711 26.0165 11.3746 26.0176C11.788 26.1737 12.1648 26.1086 12.4008 26.0292C12.527 25.9867 12.6292 25.9353 12.7016 25.8937C12.7385 25.8725 12.7697 25.8526 12.7945 25.8359L12.8004 25.832L16.4509 23.5554L20.6676 26.7882C20.7299 26.836 20.7977 26.8759 20.8696 26.9073C21.3761 27.1284 21.8667 27.2055 22.3282 27.1424C22.7888 27.0795 23.1546 26.886 23.4268 26.6682C23.6934 26.4548 23.8742 26.216 23.9867 26.0384C24.0442 25.9478 24.0874 25.8676 24.1178 25.8062C24.1331 25.7753 24.1454 25.7487 24.1549 25.7273L24.1671 25.6992L24.1717 25.6881L24.1736 25.6834L24.1745 25.6813L24.1753 25.6792C24.1974 25.6238 24.2144 25.5665 24.226 25.508L28.0755 6.10004C28.0878 6.03797 28.094 5.97485 28.094 5.91157C28.094 5.34322 27.8799 4.80278 27.3763 4.47484C26.9459 4.19455 26.4665 4.18248 26.1635 4.20548C25.8367 4.23029 25.5348 4.31098 25.3322 4.37545C25.2268 4.40901 25.1384 4.44138 25.0747 4.46608C25.0427 4.47849 25.0164 4.48914 24.9969 4.49726L24.9822 4.50345L3.39363 12.9723L3.39083 12.9733C3.37707 12.9783 3.35941 12.9849 3.33842 12.9931C3.29661 13.0094 3.2406 13.0323 3.17518 13.062C3.04758 13.1198 2.86858 13.2102 2.6849 13.3359C2.39145 13.5369 1.71656 14.0873 1.8302 14.9957C1.92087 15.7204 2.41736 16.1655 2.71985 16.3796C2.88595 16.4971 3.04375 16.5811 3.15867 16.6358C3.21198 16.6612 3.32267 16.7062 3.3707 16.7257L3.38282 16.7306L7.47566 18.1085ZM25.7377 6.28749L25.7347 6.2888C25.724 6.29348 25.7131 6.29796 25.7022 6.30224L4.08744 14.7814C4.07616 14.7858 4.06479 14.79 4.05334 14.794L4.04131 14.7986C4.02749 14.804 4.0042 14.8134 3.97498 14.8267C3.95842 14.8342 3.94112 14.8424 3.9235 14.8512C3.94771 14.8648 3.9709 14.8767 3.9915 14.8865C4.01127 14.8959 4.02635 14.9023 4.03461 14.9057L8.09384 16.2723C8.16814 16.2973 8.2374 16.3304 8.30098 16.3704L21.7043 8.52416L21.7168 8.51675C21.7266 8.51098 21.7394 8.50356 21.7548 8.49487C21.7853 8.47763 21.8272 8.45467 21.8771 8.4293C21.9701 8.38195 22.1189 8.31167 22.2866 8.25985C22.4033 8.22377 22.7475 8.12214 23.1197 8.24149C23.3493 8.31516 23.5871 8.47353 23.7418 8.74182C23.8186 8.8751 23.8596 9.00899 23.8794 9.13156C23.932 9.32464 23.9237 9.5153 23.8825 9.6799C23.7937 10.0345 23.5446 10.311 23.3179 10.5226C23.1237 10.704 20.6109 13.1269 18.132 15.5188C16.8958 16.7116 15.6722 17.8926 14.7577 18.7754L14.157 19.3553L21.7415 25.1702C21.9155 25.2325 22.0183 25.2293 22.0659 25.2228C22.1226 25.215 22.169 25.1932 22.2164 25.1553C22.2694 25.1129 22.3157 25.0556 22.3504 25.001L22.3518 24.9988L26.0853 6.17532C26.0299 6.18864 25.9739 6.20449 25.9199 6.22168C25.8587 6.24115 25.8083 6.25969 25.7749 6.27265C25.7583 6.27907 25.7464 6.28393 25.7399 6.28662L25.7377 6.28749ZM14.8086 22.2963L13.2954 21.1362L12.9287 23.4686L14.8086 22.2963ZM11.9073 18.8342L13.412 17.3815C14.3266 16.4986 15.5503 15.3174 16.7867 14.1245L18.0428 12.9126L9.62111 17.8426L9.6663 17.9492C9.89583 18.4905 10.2054 19.2233 10.5252 19.9885C10.7643 20.5606 11.0143 21.1631 11.2421 21.7208L11.6077 19.3953C11.6429 19.1711 11.7525 18.977 11.9073 18.8342Z" fill="#5A5A5A"/>
</svg>
