<svg width="32" height="31" viewBox="0 0 32 31" fill="none" xmlns="http://www.w3.org/2000/svg">
<path d="M12.3944 9.26122C12.6307 9.26755 12.8927 9.28033 13.142 9.83366C13.3073 10.202 13.5857 10.8801 13.8125 11.4325C13.9891 11.8624 14.1343 12.2161 14.1706 12.2885C14.2537 12.4538 14.3048 12.6446 14.1962 12.8672C14.1834 12.8934 14.1713 12.9185 14.1597 12.9427C14.0725 13.1235 14.0105 13.2522 13.864 13.4205C13.8037 13.4897 13.741 13.5655 13.6784 13.6411C13.5685 13.7739 13.4592 13.906 13.3656 13.9993C13.1994 14.1645 13.0269 14.3427 13.2185 14.6734C13.4103 15.004 14.0812 16.0916 15.0716 16.9692C16.1364 17.9172 17.0623 18.3167 17.5303 18.5186C17.6212 18.5578 17.6948 18.5896 17.7488 18.6164C18.0811 18.7818 18.2792 18.7563 18.4708 18.5338C18.6626 18.3111 19.3015 17.567 19.5252 17.2363C19.7424 16.9057 19.966 16.9566 20.2728 17.071C20.5794 17.1855 22.2152 17.9868 22.5474 18.1521C22.6131 18.1848 22.6745 18.2143 22.7314 18.2416C22.9626 18.3524 23.1197 18.4278 23.1864 18.5401C23.2694 18.68 23.2694 19.3414 22.9947 20.1173C22.7136 20.8932 21.359 21.6373 20.7456 21.6945C20.6875 21.7 20.6297 21.707 20.5702 21.7142C20.0081 21.7822 19.2944 21.8685 16.752 20.8677C13.6192 19.6358 11.5513 16.5792 11.1332 15.9612C11.1001 15.9125 11.0774 15.8789 11.0653 15.8626L11.0582 15.8531C10.868 15.5986 9.70425 14.0414 9.70425 12.4348C9.70425 10.8977 10.4615 10.0975 10.8068 9.73244C10.8287 9.70931 10.8489 9.68793 10.8672 9.66821C11.1739 9.33755 11.5318 9.25489 11.7554 9.25489C11.9791 9.25489 12.2027 9.25489 12.3944 9.26122Z" fill="#5A5A5A"/>
<path fill-rule="evenodd" clip-rule="evenodd" d="M3.7379 27.5533C3.63222 27.9369 3.98161 28.2909 4.36658 28.1904L10.3177 26.636C12.1963 27.6535 14.3113 28.1941 16.4646 28.1941H16.471C23.5571 28.1941 29.3334 22.4512 29.3334 15.392C29.3334 11.9705 27.9978 8.75242 25.5698 6.33567C23.1418 3.91903 19.915 2.5835 16.4709 2.5835C9.38493 2.5835 3.60864 8.32631 3.60864 15.3857C3.60784 17.6314 4.20061 19.8378 5.32744 21.7835L3.7379 27.5533ZM7.19535 22.2981C7.33333 21.7972 7.2644 21.262 7.00405 20.8124C6.04802 19.1617 5.54546 17.2898 5.54614 15.3857C5.54614 9.40554 10.4458 4.521 16.4709 4.521C19.4028 4.521 22.1382 5.65377 24.203 7.7089C26.2654 9.76176 27.3959 12.4856 27.3959 15.392C27.3959 21.372 22.4962 26.2566 16.471 26.2566H16.4646C14.635 26.2566 12.837 25.7971 11.2405 24.9323C10.8084 24.6983 10.3035 24.6372 9.82809 24.7614L6.25998 25.6933L7.19535 22.2981Z" fill="#5A5A5A"/>
</svg>
