<svg width="84" height="18" viewBox="0 0 84 18" fill="none" xmlns="http://www.w3.org/2000/svg">
<path d="M3 16.1409L8.96668 4.20751C9.7367 2.66746 11.9344 2.66746 12.7045 4.20751L16.8022 12.4031C17.5723 13.9431 19.77 13.9431 20.54 12.4031L24.6378 4.20751C25.4078 2.66746 27.6056 2.66746 28.3756 4.20751L32.4734 12.4031C33.2434 13.9431 35.4411 13.9431 36.2112 12.4031L40.3089 4.20751C41.079 2.66746 43.2767 2.66746 44.0467 4.20751L48.1445 12.4031C48.9145 13.9431 51.1123 13.9431 51.8823 12.4031L55.9801 4.20751C56.7501 2.66746 58.9478 2.66746 59.7179 4.20751L63.8156 12.4031C64.5857 13.9431 66.7834 13.9431 67.5534 12.4031L71.6512 4.20751C72.4212 2.66746 74.619 2.66746 75.389 4.20751L81.3557 16.1409" stroke="#E6EDFE" stroke-width="5.22371"/>
</svg>
